<svg width="60" height="62" viewBox="0 0 60 62" fill="none" xmlns="http://www.w3.org/2000/svg">
<path d="M56.5106 59.2842V16.0449L54.5963 17.0635L42.5129 23.4829L41.8379 23.8409V59.2842H36.4971V26.6749L34.5827 27.6935L33.6281 28.1978L21.8244 34.4726V59.2842H16.4835V37.3099L1.81078 45.1059V59.2842H0V61.8056H59.875V59.2842H56.5106ZM4.40008 59.2842V46.6019L13.8942 41.5592V59.2842H4.40008ZM24.4137 59.2842V35.9686L32.0521 31.9109L33.9078 30.9259V59.2842H24.4137ZM44.4272 59.2842V25.3302L53.9213 20.2875V59.2842H44.4272Z" fill="#1951A0"/>
<path d="M3.72701 28.5802L44.0044 7.07824L41.4911 15.4642L43.9768 16.1702L47.7279 3.65258L34.8728 0L34.1478 2.42049L42.7599 4.86787L2.48242 26.3699L3.72701 28.5802Z" fill="#1951A0"/>
</svg>
