<svg width="53" height="66" viewBox="0 0 53 66" fill="none" xmlns="http://www.w3.org/2000/svg">
<path d="M3.20864 65.8042C3.20864 61.029 3.20864 56.2521 3.21923 51.477C3.22912 51.2487 3.18909 51.0209 3.10178 50.8088C3.01448 50.5966 2.88189 50.4049 2.71277 50.2463C0.164618 47.6253 -0.654178 44.5391 0.53696 41.1216C1.7281 37.7042 4.26037 35.7079 7.92378 35.0797C8.03142 35.0608 8.14083 35.0471 8.24848 35.0248C8.33042 35.0019 8.41111 34.975 8.49023 34.9441V0.01089H9.24374C19.7458 0.01089 30.2478 0.00802873 40.7498 0.00230722C40.9539 -0.00927368 41.1581 0.0228427 41.3481 0.0963931C41.538 0.169943 41.7091 0.283136 41.8492 0.427987C45.2373 3.74074 48.6483 7.03289 52.0312 10.3508C52.2761 10.6036 52.4211 10.9326 52.4406 11.2794C52.4606 27.0193 52.4659 42.7597 52.4565 58.5007V59.11H15.3882V65.8042H13.1383L9.29491 62.2717L5.45857 65.8042H3.20864ZM40.2945 1.60891H10.1331V34.9699C10.3202 35.0076 10.4702 35.042 10.6202 35.0677C14.3436 35.6925 16.9111 37.7316 18.0864 41.1937C19.2617 44.6558 18.3687 47.7265 15.8047 50.3716C15.5678 50.6284 15.4272 50.9557 15.4059 51.3002C15.3706 53.1883 15.3882 55.0678 15.3882 56.9525V57.5429H50.8224V11.8201H40.2945V1.60891ZM16.9764 43.9366C16.9607 41.9659 16.1469 40.0807 14.7116 38.6897C13.2763 37.2987 11.3351 36.5142 9.30903 36.5061C7.27181 36.5093 5.31889 37.2975 3.87786 38.6982C2.43683 40.0989 1.62512 41.9979 1.62045 43.9795C1.63761 45.9511 2.45273 47.8368 3.88922 49.228C5.32571 50.6191 7.26786 51.4037 9.29491 51.4118C11.3314 51.4072 13.283 50.6181 14.7227 49.2171C16.1623 47.8161 16.9727 45.9174 16.9764 43.9366ZM13.7471 64.0998V51.8632C10.7472 53.3222 7.80378 53.3084 4.85682 51.8632V64.05L4.99976 64.1341L9.3902 59.8601L13.7471 64.0998ZM41.9039 2.88938V10.2581H49.4919L41.9039 2.88938Z" fill="#1951A0"/>
<path d="M45.2753 18.5566V20.0259H15.7051V18.5566H45.2753Z" fill="#195191"/>
<path d="M45.2773 22.6719V24.136H15.707V22.6719H45.2773Z" fill="#195191"/>
<path d="M45.2773 26.7832V28.2473H15.707V26.7832H45.2773Z" fill="#195191"/>
<path d="M45.2753 30.8926V32.3619H15.7051V30.8926H45.2753Z" fill="#195191"/>
<path d="M19.9023 36.4658V35.0137H41.0234V36.4658H19.9023Z" fill="#195191"/>
<path d="M15.6836 9.73366V8.26953H28.3097V9.73366H15.6836Z" fill="#195191"/>
<path d="M45.2818 41.1777V42.6316H32.6328V41.1777H45.2818Z" fill="#195191"/>
<path d="M15.709 12.3613H24.0734V13.8478H15.709V12.3613Z" fill="#195191"/>
<path d="M36.8652 46.7515V45.2754H45.2544V46.7515H36.8652Z" fill="#195191"/>
<path d="M9.29544 48.8413C7.97018 48.836 6.7003 48.3236 5.76023 47.415C4.82015 46.5064 4.28538 45.2745 4.27149 43.9855C4.27008 42.6856 4.79947 41.4384 5.74325 40.5182C6.68703 39.5979 7.96792 39.0799 9.30427 39.0781C9.96707 39.0799 10.623 39.2089 11.2345 39.4577C11.8459 39.7065 12.4009 40.0702 12.8676 40.528C13.3343 40.9858 13.7036 41.5286 13.9542 42.1255C14.2048 42.7223 14.3319 43.3614 14.3282 44.0061C14.3097 45.2932 13.7716 46.5217 12.83 47.4263C11.8884 48.331 10.6189 48.8392 9.29544 48.8413ZM9.29544 40.6195C8.38202 40.624 7.50782 40.9811 6.86491 41.6123C6.222 42.2434 5.86298 43.097 5.86673 43.9855C5.87777 44.8625 6.24158 45.7004 6.88019 46.3197C7.5188 46.9389 8.38139 47.2902 9.28309 47.2982C10.1965 47.3023 11.0743 46.9535 11.7235 46.3285C12.3727 45.7035 12.7402 44.8533 12.7453 43.9649C12.7435 43.0764 12.3791 42.225 11.7322 41.5977C11.0853 40.9704 10.2089 40.6186 9.29544 40.6195Z" fill="#195191"/>
</svg>
