<svg width="61" height="67" viewBox="0 0 61 67" fill="none" xmlns="http://www.w3.org/2000/svg">
<path d="M30.5609 67C29.0621 67 27.496 66.5975 25.7761 65.7659C18.9507 62.4687 13.4004 58.2678 9.27872 53.278C4.96028 48.0483 2.06784 41.7737 0.674186 34.6275C0.29949 32.7083 0.102707 30.552 0.0487943 27.8358C-0.00242313 25.0557 0.00566384 22.2276 0.0110552 19.4901C0.0164465 17.4217 0.0218378 15.284 0.000272528 13.1809C-0.0105101 12.192 0.296795 11.7922 1.25645 11.5416C11.1845 8.95075 20.7299 5.15774 29.6228 0.261219C29.9463 0.0826305 30.224 0 30.4935 0C30.7631 0 31.0381 0.0826305 31.3588 0.258553C40.2249 5.10976 49.7702 8.90277 59.7252 11.5389C60.701 11.7975 61.0057 12.1947 60.9841 13.1729C60.9383 15.1054 60.9491 17.0645 60.9571 18.9624C60.9598 19.746 60.9652 20.5323 60.9652 21.316L60.9733 21.9024C61.038 27.1348 61.1027 32.5458 59.6524 37.7062C57.787 44.3486 54.6304 50.1354 50.2769 54.9066C46.0906 59.4966 40.6508 63.303 34.1111 66.219C32.9304 66.7441 31.7686 67 30.5609 67ZM30.5097 2.00712C30.1054 2.00712 29.7253 2.09242 29.4368 2.24435C20.897 6.79436 11.9744 10.3288 2.91428 12.7544C2.00045 12.9996 1.61497 13.5141 1.62575 14.479C1.63923 15.7078 1.62845 16.9606 1.61767 18.1707C1.60149 20.1085 1.58532 22.113 1.66619 24.0855C1.69854 24.8638 1.7201 25.6448 1.74167 26.4284C1.82523 29.3605 1.9088 32.3938 2.53149 35.2886C5.45358 48.8959 13.9853 58.8462 27.8868 64.8623C28.8087 65.2621 29.7145 65.462 30.5798 65.462C31.4855 65.462 32.3535 65.2408 33.1622 64.8063C33.9467 64.3851 34.7554 63.964 35.5398 63.5588C38.0171 62.2741 40.5807 60.944 42.8612 59.2834C50.9374 53.4113 56.14 45.6387 58.3262 36.1842C59.4772 31.2077 59.4098 26.1326 59.3451 21.2227C59.3128 18.7438 59.2777 16.1822 59.4017 13.6767L59.4206 13.3062L59.0756 13.1596C58.9623 13.1116 58.8599 13.0663 58.7656 13.0236C58.5661 12.933 58.3774 12.8477 58.1698 12.7891C49.0989 10.3261 40.1332 6.77303 31.5152 2.22569C31.2483 2.08442 30.8898 2.00712 30.5097 2.00712Z" fill="#1951A0"/>
<path d="M30.5843 62.3384C29.8646 62.3384 29.1206 62.1544 28.3119 61.7759C21.9501 58.8092 16.8041 55.0002 13.0221 50.4556C9.03795 45.6657 6.42047 39.8869 5.24786 33.2817C4.86777 31.1467 4.78151 28.905 4.69794 26.7353C4.6656 25.901 4.63055 25.04 4.58203 24.1871L4.72221 24.1791V23.6806C4.72221 22.9982 4.7249 22.3159 4.7249 21.6362C4.73029 19.9889 4.73299 18.2883 4.71142 16.6117C4.70064 15.7534 5.00794 15.3456 5.8436 15.1057C13.998 12.7654 21.9825 9.56147 29.5708 5.58987C29.905 5.41395 30.1935 5.33398 30.4792 5.33398C30.7784 5.33398 31.0884 5.42461 31.4577 5.61653C38.9678 9.52681 46.9065 12.7148 55.0555 15.0924C56.0718 15.3882 56.2578 15.7321 56.247 16.2625C56.2146 17.8725 56.2119 19.5091 56.2092 21.0951C56.2038 24.7468 56.1984 28.5212 55.8211 32.1836C54.8371 41.7394 50.1144 49.8398 41.7821 56.2557C39.7819 57.7963 37.4879 59.0651 35.2721 60.2939C34.4229 60.7657 33.5415 61.2508 32.6896 61.7493C32.0103 62.1438 31.3202 62.3384 30.5843 62.3384ZM30.4765 7.26647C30.2474 7.26647 29.9131 7.29846 29.6139 7.44773C22.2574 11.1394 14.8363 14.1248 7.55804 16.3212C6.99195 16.4918 6.41508 17.2541 6.41508 17.8325C6.41508 19.04 6.39082 20.2741 6.36925 21.4683C6.30725 24.6269 6.24525 27.8948 6.61186 31.08C8.11873 44.189 15.6127 54.0033 28.8807 60.2539C29.4198 60.5072 29.9374 60.6324 30.4684 60.6324C31.0075 60.6324 31.5575 60.5018 32.1532 60.2326C40.9949 56.237 47.4861 50.0797 51.446 41.9286C53.8155 37.0508 54.8803 31.4106 54.6134 25.16C54.6134 24.3603 54.6188 23.6033 54.6215 22.897C54.6296 21.0231 54.6377 19.5438 54.5757 18.0271C54.5514 17.4087 54.0123 16.5051 53.3842 16.3132C46.0466 14.0715 38.6686 11.0995 31.455 7.47971C31.1774 7.34111 30.835 7.26647 30.4765 7.26647Z" fill="#1951A0"/>
<path d="M27.8084 40.8239C26.9081 40.8239 26.0401 40.4774 25.3635 39.8456C23.2177 37.8438 21.0747 35.7301 18.999 33.5604C17.6188 32.121 17.6593 29.9646 19.0934 28.5492C19.7996 27.8509 20.7135 27.4671 21.6731 27.4671C22.5573 27.4671 23.3902 27.7896 24.0749 28.4026C24.8216 29.069 25.4902 29.826 26.1991 30.6257C26.528 30.9988 26.8622 31.3747 27.2127 31.7532L27.5928 32.1637L30.5876 29.2023C32.6148 27.1978 34.5556 25.276 36.5019 23.3595C37.3753 22.4986 38.2676 22.0801 39.2245 22.0801C39.5534 22.0801 39.8984 22.1307 40.2489 22.2293C41.567 22.5999 42.5644 23.5781 42.9176 24.8469C43.2383 26.001 42.9418 27.1605 42.1089 28.0268C38.0654 32.233 33.8062 36.3565 30.1294 39.891C29.5013 40.4934 28.6791 40.8239 27.8084 40.8239ZM21.6488 29.1037C21.1313 29.1037 20.6515 29.3249 20.2255 29.7647C19.3414 30.6737 19.4465 31.7958 20.5113 32.8434C21.1771 33.4964 21.8375 34.1521 22.5007 34.8078C23.6571 35.954 24.854 37.1375 26.0482 38.289C26.3366 38.5689 26.6735 38.7608 27.0294 38.966C27.1884 39.0567 27.3555 39.1526 27.5281 39.2619L27.8381 39.4591L28.1373 39.2459C28.3125 39.118 28.485 39.006 28.6495 38.8967C29.008 38.6568 29.3476 38.4329 29.6495 38.1397C31.4934 36.3405 33.3534 34.4986 35.1541 32.7181L36.7041 31.1828C37.0545 30.8362 37.4076 30.4951 37.7608 30.1512C38.7123 29.229 39.6963 28.2774 40.5912 27.2645C41.1061 26.6834 41.2516 25.7052 41.1303 25.0388C41.0144 24.3991 40.0602 23.7727 39.4348 23.7727C39.4105 23.7727 39.3863 23.7727 39.3647 23.7753C38.6288 23.826 37.8875 24.3111 37.4373 24.7456C35.5881 26.5368 33.7281 28.3787 31.9301 30.1592C30.8734 31.2041 29.8194 32.2516 28.7573 33.2912C28.3341 33.707 28.0214 33.9016 27.7815 33.9016C27.5388 33.9016 27.2208 33.707 26.7868 33.2858C26.0508 32.5715 25.3068 31.8358 24.5898 31.1241C24.2124 30.7483 23.835 30.3751 23.4549 29.9993C22.8538 29.4049 22.2446 29.1037 21.6488 29.1037Z" fill="#1951A0"/>
<path d="M27.7999 55.5564C27.5762 55.8443 27.1961 55.8443 26.8699 55.6791C24.3171 54.3863 20.8829 51.5955 19.3302 49.9642C19.0795 49.7003 18.9851 49.3325 19.2062 49.0446C19.4299 48.7568 19.899 48.6475 20.1362 48.922C21.4436 50.444 25.0692 53.3734 27.6759 54.6369C28.0048 54.7941 28.0237 55.2686 27.7999 55.5564Z" fill="#1951A0"/>
<path d="M18.5485 48.762C19.0101 48.762 19.3842 48.392 19.3842 47.9357C19.3842 47.4793 19.0101 47.1094 18.5485 47.1094C18.087 47.1094 17.7129 47.4793 17.7129 47.9357C17.7129 48.392 18.087 48.762 18.5485 48.762Z" fill="#1951A0"/>
</svg>
