<svg width="45" height="41" viewBox="0 0 45 41" fill="none" xmlns="http://www.w3.org/2000/svg">
<path d="M44.007 20.8414V39.8407C44.007 40.6363 43.8062 40.8232 42.9553 40.8232H2.02844C1.1703 40.8232 0.970703 40.6385 0.970703 39.8473C0.970703 27.3903 0.970703 14.933 0.970703 2.47525C0.970703 1.76086 1.05198 1.65292 1.77745 1.42591C2.32844 1.25232 2.88539 1.09209 3.4316 0.908481C3.58365 0.851708 3.74832 0.830443 3.91124 0.846542C4.07415 0.862641 4.23036 0.915615 4.36623 1.00084C5.30804 1.5383 6.25224 2.0702 7.21197 2.57874C7.39841 2.66902 7.61516 2.68856 7.81674 2.63326C9.34658 2.12139 10.8609 1.56835 12.3931 1.06316C12.8174 0.922947 13.2835 0.87955 13.7353 0.82725C15.4265 0.631404 16.9767 0.991939 18.4157 1.84098C18.941 2.13262 19.4891 2.38705 20.0555 2.6021C20.2365 2.66947 20.4385 2.66947 20.6196 2.6021C21.7897 2.08022 22.9418 1.52495 24.1119 0.999727C24.3438 0.89624 24.6211 0.87955 24.8792 0.823912C24.8924 0.823912 24.9091 0.823912 24.9235 0.823912C27.1704 0.556849 29.2261 1.25455 31.2639 1.96004C31.4196 2.02122 31.5886 2.04717 31.7571 2.03575C31.9256 2.02434 32.0887 1.97589 32.2332 1.89439C32.887 1.56056 33.5671 1.27347 34.2292 0.954105C34.3647 0.88068 34.5185 0.841443 34.6752 0.840272C34.832 0.839101 34.9864 0.876037 35.1232 0.947429C35.826 1.28126 36.5275 1.6251 37.2494 1.92332C37.4995 2.02585 37.7772 2.05497 38.0454 2.00678C39.6291 1.66293 41.2031 1.2846 42.7808 0.91961C43.6867 0.709298 44.007 0.940751 44.007 1.80203V20.8414ZM2.41449 23.7524L2.51847 23.8325C2.68341 23.66 2.85671 23.4931 3.01089 23.3128C3.33359 22.9334 3.73637 22.7865 4.26225 22.8143C4.94709 22.851 5.63672 22.8043 6.32395 22.831C6.66247 22.8421 6.99693 22.9033 7.31476 23.0124C8.91512 23.5866 10.5035 24.1886 12.0955 24.7761C12.6214 24.9697 13.2046 25.3725 13.6648 25.2779C14.15 25.1789 14.5648 24.6314 14.9305 24.2197C15.4432 23.64 16.0432 23.4486 16.8428 23.4808C18.8734 23.5554 18.1754 23.2349 19.6312 24.5702C19.7225 24.6587 19.8334 24.7277 19.9562 24.7722C20.079 24.8168 20.2108 24.836 20.3423 24.8284C21.8064 24.8173 23.2717 24.8284 24.7358 24.815C25.0612 24.8235 25.3845 24.7646 25.6824 24.6426C27.6904 23.6697 29.9619 23.2695 32.2129 23.492C32.5082 23.5103 32.8006 23.5572 33.0854 23.6322C34.7312 24.1296 36.3781 24.6248 38.0108 25.1578C38.7372 25.4053 39.5086 25.5187 40.2816 25.4916C41.0358 25.4593 41.7923 25.4838 42.5393 25.4838V12.8239C40.8302 12.8239 39.1522 12.7471 37.4861 12.8451C35.9049 12.9385 34.5148 12.6748 33.3125 11.6778C33.1571 11.5498 32.8786 11.5009 32.6563 11.4986C31.3261 11.4819 29.9911 11.5621 28.6692 11.4686C27.5469 11.3885 26.6625 11.6266 26.0111 12.4957C25.988 12.5317 25.955 12.5613 25.9155 12.5813C25.7015 12.6659 25.4709 12.8362 25.2748 12.8039C24.4705 12.6848 23.9004 12.9864 23.4343 13.5517C23.3605 13.6572 23.2626 13.7461 23.1474 13.8121C22.8665 13.9423 22.5773 14.1114 22.2785 14.1381C21.6977 14.1876 21.1132 14.1876 20.5323 14.1381C20.2297 14.1142 19.9422 14.0043 19.7089 13.8232C18.9523 13.1722 18.24 12.4779 17.5109 11.8013C17.3089 11.6099 17.0399 11.4922 16.7526 11.4695C16.4654 11.4469 16.179 11.5208 15.9452 11.6778C14.7249 12.4322 13.5046 13.1789 12.2963 13.9456C11.8935 14.2026 11.5433 14.2049 11.1501 13.9367C10.7569 13.6685 10.2968 13.4248 9.89039 13.1433C9.78115 13.0538 9.64524 12.9973 9.50072 12.9814C9.35619 12.9655 9.20989 12.9909 9.08125 13.0543C8.21952 13.4026 7.33149 13.693 6.46857 14.0379C5.99886 14.2271 5.64867 14.1492 5.30924 13.8065C4.90287 13.3992 4.42121 13.0509 4.05548 12.617C3.59773 12.0728 3.03599 12.1151 2.41569 12.1919L2.41449 23.7524ZM42.5405 39.4712V26.8236C41.4792 26.8236 40.449 26.8358 39.4199 26.8158C39.0646 26.8113 38.7118 26.7584 38.3729 26.6589C36.5144 26.1025 34.6678 25.5161 32.8105 24.9441C32.6286 24.8852 32.4395 24.8478 32.2476 24.8328C30.3353 24.7216 28.4648 24.8017 26.7366 25.6986C26.4581 25.8328 26.1653 25.9395 25.8629 26.0168C25.6114 26.097 25.3491 26.1438 25.0836 26.1559C23.6195 26.1693 22.1518 26.107 20.6925 26.1815C19.7124 26.2316 18.9368 26.0279 18.3643 25.2724C18.0798 24.8963 17.689 24.8273 17.2073 24.8095C16.5679 24.7761 16.103 24.9397 15.699 25.3981C15.3596 25.7831 14.9317 26.0992 14.5696 26.4686C14.2074 26.838 13.8524 26.8759 13.3744 26.6912C11.2445 25.8811 9.10754 25.0955 6.97174 24.3143C6.71003 24.2211 6.43314 24.1703 6.15304 24.1641C5.48254 24.1485 4.73555 24.0016 4.16066 24.2231C3.58577 24.4445 3.19136 25.0621 2.69894 25.486C2.59535 25.5721 2.51433 25.6792 2.46212 25.799C2.40991 25.9188 2.38789 26.0481 2.39776 26.1771C2.40732 30.4545 2.40971 34.7316 2.40493 39.0083V39.4712H42.5405ZM42.5525 2.36509C42.3923 2.39736 42.2609 2.42072 42.1318 2.44966C40.7286 2.77347 39.3279 3.11731 37.9175 3.40774C37.618 3.45767 37.3094 3.42359 37.0307 3.30982C36.3327 3.0294 35.6706 2.67555 34.9762 2.38623C34.7834 2.31748 34.5696 2.31987 34.3786 2.3929C33.6854 2.68333 33.0244 3.04164 32.3253 3.31538C32.0296 3.42263 31.7063 3.44549 31.3966 3.38104C30.8041 3.24166 30.2229 3.06316 29.6576 2.84691C28.2234 2.32057 26.7569 2.00789 25.2079 2.16034C24.961 2.17623 24.7186 2.23038 24.4908 2.32058C23.2693 2.86954 22.0542 3.43148 20.8455 4.00641C20.6916 4.08978 20.5168 4.1337 20.3387 4.1337C20.1607 4.1337 19.9858 4.08978 19.832 4.00641C18.9583 3.58245 18.0487 3.22191 17.2025 2.76345C16.352 2.30166 15.3729 2.08627 14.3903 2.14476C13.666 2.1748 12.9847 2.25603 12.3047 2.50196C10.8501 3.04053 9.37287 3.52681 7.91235 4.04981C7.74276 4.11952 7.55669 4.14723 7.37221 4.13027C7.18772 4.11331 7.01107 4.05224 6.85939 3.953C6.11599 3.50789 5.32477 3.14068 4.60646 2.67221C4.02202 2.29053 3.48657 2.21486 2.83639 2.49639C2.54238 2.62436 2.40612 2.72673 2.40851 3.05277C2.42525 5.50085 2.41808 7.94113 2.41808 10.3848V10.8299C2.81368 10.8299 3.16985 10.8499 3.52243 10.8299C3.72369 10.8096 3.92719 10.836 4.11485 10.9067C4.30251 10.9774 4.46851 11.0901 4.5981 11.2349C5.01163 11.6533 5.47537 12.0305 5.88651 12.4512C6.10643 12.6737 6.29885 12.6926 6.5857 12.5791C7.40918 12.2542 8.25896 11.9749 9.07169 11.6388C9.25709 11.55 9.46642 11.5137 9.67375 11.5344C9.88109 11.5552 10.0773 11.6321 10.2382 11.7557C10.6242 12.0172 11.0461 12.2342 11.4226 12.5046C11.6724 12.6848 11.8469 12.6537 12.0895 12.4968C12.9369 11.9526 13.8345 11.4708 14.6484 10.8877C15.4624 10.3046 16.2787 10.0086 17.2802 10.1667C17.5808 10.2024 17.8651 10.314 18.1025 10.4894C18.8686 11.1503 19.6001 11.8469 20.3268 12.5457C20.5419 12.7516 20.769 12.8017 21.0666 12.8373C21.8853 12.9352 22.5152 12.7049 22.9932 12.0828C23.0849 11.9553 23.2037 11.8466 23.3422 11.7635C23.5526 11.6522 23.806 11.4786 24.0115 11.5075C24.8171 11.6188 25.386 11.3217 25.8521 10.7575C25.9259 10.652 26.0238 10.5631 26.139 10.4971C26.4186 10.367 26.7139 10.1789 27.0067 10.1722C28.4254 10.1388 29.8512 10.2379 31.2627 10.1344C32.8069 10.0231 34.1312 10.3358 35.3096 11.2816C35.5113 11.4164 35.7547 11.4863 36.0029 11.4808C37.9606 11.4964 39.9171 11.4897 41.8748 11.4897H42.5525V2.36509Z" fill="#114D38"/>
<path d="M8.16211 16.8014V15.5195H10.2668V16.8014H8.16211Z" fill="#114D38"/>
<path d="M36.0932 16.8042H33.998V15.5156H36.0932V16.8042Z" fill="#114D38"/>
<path d="M14.6172 17.4596V16.1777H16.7135V17.4596H14.6172Z" fill="#114D38"/>
<path d="M24.6641 16.1758H26.7568V17.4621H24.6641V16.1758Z" fill="#114D38"/>
<path d="M28.9238 18.8438V20.1257H26.8203V18.8438H28.9238Z" fill="#114D38"/>
<path d="M7.38627 20.8139H5.30664V19.5176H7.38627V20.8139Z" fill="#114D38"/>
<path d="M35.418 20.7925V19.5117H37.5143V20.7925H35.418Z" fill="#114D38"/>
<path d="M40.3997 22.1407H39.0156V20.8477H40.3997V22.1407Z" fill="#114D38"/>
<path d="M20.2993 21.48H18.9355V20.1836H20.2993V21.48Z" fill="#114D38"/>
<path d="M12.4156 20.8053H11.0352V19.5234H12.4156V20.8053Z" fill="#114D38"/>
<path d="M13.1639 33.1724C13.4244 34.1461 12.9248 34.7559 12.1001 35.2866C11.2205 35.8564 10.4042 36.5107 9.5783 37.1494C9.28553 37.3867 8.90599 37.5102 8.51817 37.4944C6.77678 37.4688 7.08394 37.659 6.30826 36.2292C5.77163 35.2399 5.25052 34.2429 4.70432 33.2581C4.48799 32.8686 4.53341 32.5548 4.87045 32.2488C5.52183 31.6579 6.14333 31.0381 6.81383 30.4684C7.03106 30.288 7.30832 30.1827 7.59907 30.1702C9.51137 30.1702 8.88868 29.9254 10.2285 31.1583C10.3397 31.2753 10.4789 31.3664 10.6347 31.4244C10.7906 31.4823 10.9589 31.5055 11.1261 31.4921C11.542 31.4654 11.9627 31.4788 12.3786 31.4921C12.8818 31.5033 13.1483 31.7492 13.1639 32.2132C13.1722 32.5348 13.1639 32.8541 13.1639 33.1724ZM11.6687 32.774C10.5237 33.05 9.64881 32.6906 8.91975 31.8482C8.44167 31.2918 7.89428 31.3341 7.3421 31.8482C7.01462 32.152 6.6967 32.4669 6.35607 32.7573C6.17918 32.9076 6.1756 33.0322 6.27958 33.2214C6.73614 34.047 7.17836 34.8816 7.62536 35.7128C7.92057 36.2603 8.35682 36.3438 8.89346 35.9465C9.61894 35.4113 10.305 34.8226 11.0735 34.3486C11.7021 33.9613 11.8408 33.4918 11.6687 32.774Z" fill="#114D38"/>
<path d="M24.7501 32.1367C24.8696 32.2335 25.1637 32.3593 25.2868 32.5707C25.7852 33.4208 26.2429 34.2932 26.6959 35.1668C26.9122 35.5863 26.7688 35.9457 26.3003 36.116C24.3952 36.7925 22.4848 37.4576 20.5694 38.1111C20.1773 38.2447 19.8271 38.1056 19.6909 37.7439C19.1794 36.3856 18.6869 35.021 18.2136 33.6501C18.1835 33.5627 18.1745 33.4702 18.1873 33.3793C18.2 33.2883 18.2343 33.2011 18.2875 33.1239C18.3407 33.0466 18.4116 32.9814 18.4952 32.9327C18.5787 32.884 18.6727 32.8531 18.7706 32.8422C20.7008 32.6019 22.6442 32.3838 24.7501 32.1367ZM25.074 35.1256C24.835 34.6805 24.5959 34.2788 24.4047 33.8615C24.2852 33.6145 24.1406 33.5388 23.8585 33.5766C23.1067 33.6779 22.3514 33.7547 21.5972 33.8448C21.0283 33.9138 20.4606 33.9872 19.8618 34.0674C20.1797 34.9464 20.4761 35.7677 20.7857 36.6267L25.074 35.1256Z" fill="#114D38"/>
<path d="M41.1386 34.1829C41.1386 34.7927 41.1278 35.407 41.1386 36.0123C41.1493 36.4507 40.9414 36.71 40.4932 36.8391C39.8557 37.0231 39.2183 37.2189 38.5809 37.4266C38.4157 37.4948 38.2297 37.5056 38.0566 37.457C37.8836 37.4084 37.735 37.3037 37.6379 37.1618C36.959 36.3183 36.2742 35.4804 35.6061 34.6325C35.2475 34.174 35.3503 33.7701 35.9048 33.5097C37.2482 32.8799 38.594 32.2556 39.9422 31.6369C40.6378 31.3176 41.1266 31.5969 41.1374 32.3113C41.1386 32.9344 41.1386 33.5587 41.1386 34.1829ZM37.2124 34.3966L38.0096 35.3869C38.5892 36.1047 38.5904 36.108 39.4761 35.7397C39.5304 35.7158 39.5781 35.6807 39.6158 35.6371C39.6535 35.5936 39.6801 35.5427 39.6936 35.4882C39.7115 34.7616 39.7032 34.0338 39.7032 33.2393L37.2124 34.3966Z" fill="#114D38"/>
<path d="M15.3149 30.1558C14.985 28.9496 15.5719 28.0983 16.5495 27.3951C16.6786 27.3027 16.7802 27.1792 16.8997 27.0746C17.2965 26.7341 17.6479 26.7263 18.0375 27.0746C18.72 27.6944 19.3977 28.3209 20.0622 28.9585C20.4853 29.3635 20.4207 29.8031 19.9032 30.0991C18.7718 30.7423 17.6344 31.3765 16.491 32.0019C15.8587 32.3457 15.3292 32.0475 15.3161 31.3587C15.3101 30.9604 15.3149 30.5586 15.3149 30.1558ZM16.7993 30.2838L18.3805 29.4014L17.4734 28.4733C16.6953 29.0631 16.6368 29.2278 16.7993 30.2838Z" fill="#114D38"/>
<path d="M31.817 30.5675C31.9162 31.0003 31.6532 31.3097 31.2194 31.5612C30.611 31.9128 30.0242 32.29 29.4266 32.6617C29.0465 32.8987 28.7011 32.8664 28.3796 32.5671C27.7047 31.938 27.0275 31.3097 26.3478 30.6821C26.2103 30.5728 26.1193 30.4213 26.0912 30.255C26.0632 30.0887 26.0999 29.9185 26.1948 29.7752C26.4076 29.3935 26.6036 29.004 26.8175 28.6235C27.0709 28.1695 27.3733 28.0582 27.8872 28.244C28.9282 28.6235 29.9644 29.0129 31.0031 29.3991C31.756 29.6806 31.817 29.7607 31.817 30.5675ZM30.2369 30.5508L27.892 29.6873C27.6697 30.0211 27.6661 30.0211 27.8848 30.2259C28.1968 30.5207 28.5051 30.8201 28.841 31.0971C28.9258 31.1695 29.1206 31.2285 29.1995 31.1873C29.527 31.0126 29.8354 30.8 30.2334 30.5508H30.2369Z" fill="#114D38"/>
<path d="M7.39747 28.1479H6.02539V26.8516H7.39747V28.1479Z" fill="#114D38"/>
<path d="M36.1057 27.5254V28.7928H34.7109V27.5254H36.1057Z" fill="#114D38"/>
<path d="M23.1758 30.1351H21.793V28.8555H23.1758V30.1351Z" fill="#114D38"/>
<path d="M37.5762 28.8418H38.9518V30.1326H37.5762V28.8418Z" fill="#114D38"/>
<path d="M31.1328 34.166H32.4953V35.4624H31.1328V34.166Z" fill="#114D38"/>
<path d="M16.7224 36.8151H15.3516V35.5176H16.7224V36.8151Z" fill="#114D38"/>
<path d="M30.3702 36.1836V37.4566H28.9766V36.1836H30.3702Z" fill="#114D38"/>
<path d="M13.1442 36.8457V38.1276H11.7578V36.8457H13.1442Z" fill="#114D38"/>
<path d="M28.9337 4.84961V6.12261H26.8242V4.84961H28.9337Z" fill="#114D38"/>
<path d="M5.95442 9.4741H3.86523V8.17773H5.95442V9.4741Z" fill="#114D38"/>
<path d="M38.3047 8.83789H39.6756V10.1343H38.3047V8.83789Z" fill="#114D38"/>
<path d="M21.0202 10.1401H19.6445V8.84375H21.0202V10.1401Z" fill="#114D38"/>
<path d="M31.7792 8.14012H30.4023V6.84375H31.7792V8.14012Z" fill="#114D38"/>
<path d="M19.5842 6.80809H18.2109V5.51172H19.5842V6.80809Z" fill="#114D38"/>
<path d="M10.3498 6.7149H8.97656V5.42188H10.3498V6.7149Z" fill="#114D38"/>
<path d="M37.5723 6.13403V4.85547H38.9563V6.13403H37.5723Z" fill="#114D38"/>
</svg>
