<svg width="44" height="41" viewBox="0 0 44 41" fill="none" xmlns="http://www.w3.org/2000/svg">
<path d="M8.40342 17.0213V18.3592H20.8941V16.3172C19.8285 16.1869 18.8132 15.8156 17.9367 15.2356C16.0266 13.9626 14.6592 11.302 15.7459 8.7344C16.5206 6.90116 17.5934 5.22583 18.7613 3.59916C19.4688 2.61278 20.2249 1.65236 20.9788 0.698427C21.3638 0.208481 21.8486 0.199829 22.229 0.671388C24.0591 2.94266 25.7872 5.26584 27.0884 7.84428C27.8493 9.35197 28.1821 10.8889 27.5013 12.495C26.5735 14.6776 24.8339 15.9257 22.3392 16.3226V18.3549H34.8102V17.1359C33.9485 16.8115 33.0624 16.5952 32.3109 16.1734C30.3161 15.0496 29.3013 13.344 29.2723 11.1647C29.2619 10.2854 29.604 9.46986 29.9867 8.68248C31.281 6.02402 33.0659 3.64891 34.9401 1.32789C35.2671 0.922308 35.7681 0.90176 36.0848 1.29328C38.0946 3.78844 40.0025 6.33875 41.3211 9.23516C42.8636 12.6215 40.2773 16.3734 36.6252 16.938C36.4988 16.9575 36.3747 16.9921 36.239 17.0224V18.3851H42.0935C42.9286 18.3851 43.1083 18.5311 43.1512 19.3218C43.3762 23.409 42.4125 27.2409 40.1138 30.729C36.6461 35.9907 31.6069 39.2019 25.0658 40.225C14.9039 41.8149 4.94731 36.3812 1.37639 27.375C0.354979 24.8126 -0.0910865 22.0819 0.0658508 19.352C0.112242 18.5149 0.274609 18.3851 1.18039 18.3851H6.97923V17.0072C5.90988 16.8733 4.89142 16.4992 4.01138 15.917C2.11284 14.6505 0.723439 11.9899 1.84262 9.38009C2.74723 7.27213 4.03574 5.37292 5.4031 3.51264C5.93428 2.78908 6.49329 2.08282 7.05925 1.38197C7.44893 0.898514 7.93256 0.890944 8.31528 1.36575C10.1361 3.62404 11.8572 5.93749 13.1515 8.50403C13.8752 9.93817 14.2533 11.408 13.6607 12.9655C12.8337 15.1383 11.2147 16.4805 8.77455 16.9413C8.66089 16.9618 8.54839 16.9878 8.40342 17.0213ZM23.1151 39.097C22.2174 38.1236 22.084 37.0961 22.6581 35.955C22.4482 35.955 22.2893 35.9626 22.1304 35.955C21.422 35.9115 20.7582 35.6171 20.2749 35.1322C19.7915 34.6472 19.5251 34.0084 19.5302 33.3463C19.5395 31.9792 20.7144 30.8025 22.1803 30.7884C25.0503 30.7618 27.9212 30.7618 30.7927 30.7884C32.0372 30.7993 33.0856 31.6623 33.3721 32.785C33.5379 33.4339 33.3976 34.0374 33.1169 34.6236C33.4811 34.6669 33.8383 34.6637 34.1607 34.7621C34.4646 34.8562 34.6409 34.7675 34.8508 34.5955C36.4773 33.287 37.8648 31.7403 38.9587 30.0162C39.4504 29.2321 39.8679 28.4068 40.3573 27.5286H39.7543C38.1016 27.5286 36.4489 27.5427 34.7963 27.5286C34.2835 27.526 33.7778 27.4166 33.3162 27.2085C32.8545 27.0004 32.4485 26.6988 32.1278 26.3257C31.807 25.9526 31.5797 25.5174 31.4623 25.0519C31.3449 24.5864 31.3404 24.1023 31.4492 23.635C31.5489 23.2024 31.7762 22.7871 31.9525 22.3371C31.2682 22.3371 30.5724 22.362 29.88 22.3317C28.5068 22.2723 27.4932 21.6612 26.853 20.5277C26.7424 20.3069 26.6441 20.0809 26.5584 19.8506H1.43786C1.38371 21.3398 1.52904 22.8294 1.87045 24.285H2.38539C5.99574 24.285 9.6061 24.2753 13.2165 24.285C15.8839 24.2948 18.0307 26.1983 18.1246 28.6113C18.1568 29.2215 18.0564 29.8315 17.8292 30.4046C17.6021 30.9776 17.253 31.5019 16.8029 31.9459C16.3528 32.3899 15.8111 32.7443 15.2103 32.988C14.6095 33.2316 13.9621 33.3594 13.3069 33.3636C11.3782 33.3863 9.44953 33.3636 7.52084 33.369H7.07665C9.63974 36.8419 18.6964 40.0769 23.1151 39.097ZM2.21026 25.5937C2.90873 27.8854 4.07994 30.028 5.65825 31.9014C5.76323 32.0025 5.90635 32.0615 6.05721 32.0658C8.49273 32.0744 10.9282 32.0798 13.3638 32.0658C14.1851 32.0602 14.9745 31.7681 15.5766 31.247C16.0996 30.8144 16.4693 30.2439 16.6369 29.611C16.8044 28.9781 16.7619 28.3126 16.5148 27.7028C16.2739 27.0897 15.8382 26.5597 15.2658 26.1837C14.6935 25.8076 14.0117 25.6033 13.3116 25.598C10.876 25.584 8.44053 25.598 6.00502 25.598C4.76175 25.5926 3.51616 25.5937 2.21026 25.5937ZM21.6051 2.05362C21.1087 2.71337 20.6332 3.32012 20.1843 3.94418C19.0153 5.56652 17.8926 7.21697 17.1028 9.04156C16.4742 10.493 16.6981 11.8536 17.6294 13.1093C18.4111 14.166 19.5082 14.7857 20.922 14.9966C20.922 14.3358 20.9324 13.7161 20.9115 13.0985C20.8962 13.0364 20.8678 12.9777 20.828 12.9259C20.7882 12.8741 20.7377 12.8302 20.6796 12.7967C20.2064 12.4874 19.7158 12.1997 19.2368 11.8958C18.8239 11.6341 18.7184 11.289 18.9353 10.9646C19.1522 10.6401 19.5731 10.5666 19.9976 10.8142C20.2864 10.984 20.574 11.1625 20.922 11.3745V10.9127C20.922 9.80622 20.922 8.69979 20.922 7.59336C20.922 7.07096 21.1539 6.78435 21.5923 6.77354C22.0469 6.76272 22.3056 7.0569 22.3079 7.59552C22.3079 8.1828 22.3079 8.77117 22.3079 9.43417L23.1197 8.93557C23.6057 8.63814 24.0197 8.65761 24.2679 8.98965C24.5335 9.34223 24.4013 9.69807 23.8794 10.0225C23.434 10.3005 22.9829 10.5687 22.5456 10.8564C22.4874 10.8898 22.4369 10.9337 22.397 10.9855C22.3572 11.0373 22.3289 11.096 22.3137 11.1582C22.3044 12.4247 22.3137 13.6912 22.3137 14.9966C23.7054 14.7933 24.7886 14.1757 25.5738 13.1396C26.6663 11.6989 26.7208 10.1804 25.9298 8.58514C24.886 6.47935 23.5256 4.56175 22.0968 2.6766C21.9495 2.48408 21.7941 2.29372 21.6051 2.05362ZM6.99662 15.6639C6.99662 15.0648 6.98387 14.4991 6.99662 13.9334C7.00642 13.8363 6.98495 13.7386 6.93496 13.6529C6.88497 13.5672 6.80873 13.4973 6.71596 13.4522C6.23698 13.1742 5.76959 12.8778 5.30452 12.5804C4.89976 12.3208 4.80002 11.9715 5.02038 11.646C5.24074 11.3204 5.65013 11.2544 6.08389 11.5097C6.37151 11.6795 6.65333 11.8569 6.99662 12.0667V8.39046C6.99077 8.28238 6.99077 8.17408 6.99662 8.066C7.00653 7.89556 7.08804 7.73564 7.2235 7.62085C7.35896 7.50607 7.53745 7.44568 7.72032 7.45275C8.09608 7.47006 8.36979 7.73504 8.37791 8.12873C8.39067 8.76793 8.37791 9.40821 8.37791 10.1242C8.72584 9.90789 8.99954 9.73484 9.27673 9.57044C9.71396 9.30871 10.1071 9.35413 10.3449 9.6786C10.5826 10.0031 10.4794 10.3676 10.0503 10.6401C9.57247 10.9451 9.08305 11.2339 8.60986 11.5443C8.55343 11.5786 8.50489 11.6231 8.46706 11.6751C8.42923 11.727 8.40286 11.7855 8.38951 11.8471C8.37443 13.1136 8.38023 14.3801 8.38023 15.6607C8.46953 15.6542 8.52636 15.6542 8.58087 15.6456C11.4525 15.1999 13.3081 12.2624 12.2481 9.83651C11.4177 7.93621 10.2591 6.21761 9.04362 4.52498C8.6203 3.93445 8.16451 3.36663 7.67741 2.71661C6.91428 3.7668 6.18479 4.73588 5.49357 5.72767C4.56378 7.02967 3.77217 8.41302 3.12996 9.85814C2.01774 12.4322 4.17027 15.3773 6.99662 15.6639ZM35.535 2.72743C35.0433 3.37636 34.5921 3.95391 34.1665 4.54445C32.9743 6.20572 31.8354 7.88538 31.0119 9.74349C30.1166 11.7703 31.15 13.7009 32.37 14.6494C33.0651 15.2129 33.925 15.5696 34.8392 15.6737C34.8392 15.0247 34.8519 14.4191 34.8276 13.8134C34.7977 13.6775 34.7114 13.5582 34.5875 13.4814C34.1166 13.1688 33.6249 12.8811 33.1471 12.5761C32.7435 12.3176 32.6426 11.9672 32.8629 11.6416C33.0833 11.3161 33.4927 11.2501 33.9264 11.5053C34.2141 11.6752 34.4959 11.8525 34.8392 12.0624V8.39046C34.8353 8.28229 34.8372 8.17399 34.845 8.066C34.8549 7.89556 34.9364 7.73564 35.0718 7.62085C35.2073 7.50607 35.3858 7.44568 35.5687 7.45275C35.9444 7.47006 36.2193 7.73396 36.2274 8.12764C36.2402 8.76793 36.2274 9.40821 36.2274 10.1242C36.5753 9.90789 36.8491 9.73592 37.1262 9.57044C37.5635 9.30871 37.9566 9.35413 38.1944 9.6786C38.4321 10.0031 38.3289 10.3676 37.901 10.6401C37.4231 10.9451 36.9326 11.2339 36.4594 11.5443C36.4028 11.5785 36.3542 11.6229 36.3163 11.6749C36.2785 11.7269 36.2522 11.7855 36.239 11.8471C36.2239 13.1136 36.2297 14.3801 36.2297 15.6477C38.9424 15.4855 41.0602 12.601 40.1938 10.1826C39.208 7.43977 37.342 5.15012 35.535 2.72743ZM41.7897 19.8777H28.0464C28.4778 20.6618 29.125 21.049 30.018 21.0544C31.5825 21.0642 33.1494 21.0544 34.7128 21.0544C35.2057 21.0544 35.506 21.2891 35.5246 21.6644C35.5432 22.0397 35.2497 22.3134 34.7406 22.3512C33.5634 22.4442 32.718 23.2943 32.7516 24.364C32.7852 25.4336 33.7049 26.2329 34.889 26.2394C36.3817 26.247 37.8743 26.2394 39.3657 26.2394H40.805C41.5206 24.1869 41.8537 22.0352 41.7897 19.8777ZM32.8594 36.0816L32.8084 35.9604C32.1474 35.9604 31.4874 35.9604 30.8264 35.9604C30.2998 35.9604 29.9925 35.7312 29.9728 35.3418C29.9531 34.9524 30.2326 34.7188 30.7649 34.6626C31.5338 34.5815 32.0789 34.0136 32.0557 33.3258C32.0448 32.9892 31.8931 32.6701 31.633 32.4366C31.3728 32.2031 31.025 32.0739 30.664 32.0766C27.8806 32.0679 25.0971 32.0647 22.3137 32.0863C21.9994 32.1064 21.6974 32.2079 21.4415 32.3794C20.9695 32.679 20.8129 33.2447 20.9846 33.753C21.0678 34.0142 21.2384 34.2437 21.4715 34.4079C21.7046 34.5722 21.9879 34.6625 22.28 34.6658C23.2079 34.6788 24.1357 34.6658 25.0635 34.6745C25.4856 34.6799 25.7698 34.9395 25.786 35.2899C25.8023 35.6403 25.5344 35.9129 25.1226 35.9626C25.0368 35.9734 24.9487 35.9626 24.8629 35.9821C24.5387 36.0347 24.2448 36.1921 24.0327 36.4267C23.8206 36.6612 23.7039 36.958 23.7031 37.2648C23.7031 37.8889 24.2006 38.4935 24.8721 38.5281C25.7895 38.5767 26.7278 38.6795 27.6231 38.3615C28.4349 38.0738 29.2665 37.8272 30.0482 37.4833C31.005 37.055 31.9212 36.551 32.8548 36.0816H32.8594Z" fill="#114D38"/>
</svg>
