<svg width="44" height="37" viewBox="0 0 44 37" fill="none" xmlns="http://www.w3.org/2000/svg">
<path d="M0.421875 21.3473C0.520759 20.9434 0.601663 20.5344 0.72302 20.1368C1.32082 18.1721 2.59057 16.5945 4.13001 15.1832C4.55814 14.7919 5.01435 14.4278 5.47843 14.0324C7.79096 15.8977 9.77537 17.9179 10.4001 20.7938C10.9856 23.493 9.33601 25.8375 6.42569 26.4506C6.22343 26.4924 6.10993 26.5552 6.10993 26.7749C6.11892 29.5814 6.12229 32.3876 6.12005 35.1935C6.1259 35.2412 6.13567 35.2884 6.14926 35.3347H7.48532C7.48532 35.0429 7.44262 34.7436 7.49318 34.4591C7.64376 33.6326 8.32808 33.0771 9.22702 33.0091C9.77762 32.9672 9.96752 32.7841 9.96865 32.2611C9.96865 30.7336 10.0024 29.2062 9.96865 27.6798C9.9046 25.5707 10.8372 24.0673 13.0071 23.2189C11.7306 21.7992 11.1777 20.1714 11.3148 18.2851L12.4868 18.374C12.57 19.0153 12.5992 19.6294 12.7396 20.2216C12.9687 21.2546 13.5745 22.182 14.4544 22.8464C14.5809 22.9464 14.7383 23.0062 14.9038 23.017C16.9826 23.0274 19.0615 23.0233 21.1403 23.017C21.2157 23.0103 21.2907 22.9999 21.365 22.9856C21.365 22.5608 21.365 22.135 21.365 21.7103C21.3571 21.0721 21.5234 20.3659 21.2807 19.8157C21.038 19.2654 20.3908 18.9002 19.9154 18.4556C19.2019 17.7913 18.4839 17.1301 17.7636 16.4679L18.6895 15.6885L21.2414 18.0738L21.3481 18.0288V7.7835H22.6168V12.1492L25.2866 9.63838L26.1777 10.604L24.2068 12.4286C23.7573 12.847 23.3 13.2488 22.873 13.684C22.7364 13.8228 22.654 14.0005 22.6392 14.1882C22.6258 17.0328 22.6291 19.8784 22.6303 22.723C22.6303 22.8004 22.6426 22.8789 22.6516 22.9919H25.7181C25.7912 22.4353 25.8732 21.8965 25.9294 21.3556C25.9384 21.2646 25.8417 21.1464 25.7664 21.069C25.5204 20.8022 25.2327 20.5647 25.0147 20.2802C24.7605 19.9551 24.6444 19.5539 24.6888 19.1539C24.7332 18.7539 24.9349 18.3833 25.2552 18.1135C25.9361 17.5235 27.0531 17.4126 27.6655 18.0089C28.2003 18.532 28.6835 18.6858 29.3982 18.4075C29.6914 18.2935 30.0623 18.3269 30.3971 18.3343C30.732 18.3416 31.0612 18.4023 31.4478 18.4452C31.3017 16.9167 30.5679 15.6926 29.3307 14.7071C30.3746 13.096 30.4544 11.4232 29.7476 9.70429C29.4083 8.83898 28.7971 8.08878 27.9936 7.55125C27.9003 7.49869 27.8235 7.42426 27.7709 7.3354C27.7182 7.24654 27.6916 7.14636 27.6935 7.04489C27.6329 5.63045 27.2047 4.33005 26.0698 3.33617C24.2719 1.75853 22.137 1.43212 19.8593 2.20316C17.6434 2.95432 16.5377 4.55602 16.3489 6.70907C16.3107 7.13487 16.1949 7.4278 15.8084 7.71027C13.7936 9.19689 13.1981 12.2559 14.4746 14.3671C14.542 14.4791 14.6083 14.5921 14.6926 14.7249C13.7778 15.3743 13.1088 16.2779 12.7823 17.3048L11.5834 16.991C11.8087 16.1601 12.2427 15.391 12.8498 14.7469C13.0374 14.546 13.0857 14.3912 12.9779 14.1286C11.9508 11.6429 12.7329 8.68845 14.8589 6.88901C14.984 6.7761 15.0634 6.62643 15.0836 6.46531C15.4893 2.27116 19.2929 0.377569 22.7482 0.711301C25.2361 0.955062 27.1789 2.03263 28.2543 4.18463C28.6015 4.87825 28.6936 5.68172 28.9172 6.43183C28.9531 6.60263 29.0364 6.7617 29.1588 6.8932C30.2083 7.80022 30.9455 8.97655 31.2771 10.2735C31.6087 11.5705 31.5199 12.9299 31.0219 14.1799C30.9747 14.297 30.9365 14.4937 31.0039 14.5649C31.889 15.5384 32.4663 16.7217 32.6714 17.9827C33.3782 17.5768 34.0839 17.513 34.8064 17.8488C35.3829 17.1594 35.9144 16.4543 36.5257 15.815C37.1369 15.1758 37.81 14.6214 38.4831 14.0052C40.9361 15.9929 43.0171 18.1219 43.5071 21.2092C43.5221 21.2579 43.5444 21.3044 43.5734 21.3473V22.3652C43.5453 22.4698 43.5127 22.5629 43.4902 22.6634C43.0497 24.5664 41.8407 25.8176 39.8248 26.3731C39.1506 26.5583 39.1506 26.5447 39.1506 27.2101V30.0348H37.8819V29.5765C37.8819 28.6758 37.8718 27.775 37.8887 26.8743C37.8887 26.6054 37.8156 26.4903 37.5145 26.4317C37.101 26.3638 36.7004 26.2397 36.3256 26.0635C35.7447 25.7663 35.2098 25.3929 34.6592 25.0549V33.0729C35.8132 33.4391 36.4459 34.209 36.5425 35.3358H37.8909V33.6274H39.1506V35.364H43.5711V36.5389H0.421875V35.364H4.81433C4.83006 35.2448 4.84355 35.1935 4.84355 35.1422C4.84355 32.3657 4.84355 29.5881 4.85141 26.8104C4.85141 26.5489 4.72444 26.4903 4.48959 26.4422C2.54787 26.0363 1.268 24.9451 0.646611 23.1938C0.551098 22.9249 0.497161 22.6424 0.421875 22.3673V21.3473ZM18.1906 27.7112V24.1981C17.8479 24.2682 17.5647 24.332 17.2782 24.3822C17.0152 24.4272 16.9141 24.5486 16.9231 24.8091C16.9444 25.395 16.9298 25.9829 16.9298 26.5698V27.6997H15.6477V25.2935C14.8814 26.0153 14.4263 26.7968 14.4364 27.6997C14.4499 28.817 14.16 29.8653 13.8813 30.9261C13.8259 31.0864 13.8109 31.2565 13.8375 31.4231C14.1577 32.6638 14.4948 33.9025 14.8387 35.1381C14.8634 35.2249 14.9836 35.3525 15.0634 35.3546C15.8837 35.3703 16.704 35.364 17.6479 35.364C17.4849 35.0502 17.4007 34.8001 17.2411 34.6035C16.8557 34.1254 16.2556 34.1944 15.6927 34.185V31.2661C17.4771 31.3394 18.621 30.6573 18.8592 28.9541H20.0649C20.0952 29.8182 19.7345 30.5338 19.2109 31.2306H23.8775V28.929H25.1484V35.34H28.4015C28.2812 35.0429 28.2273 34.7688 28.0745 34.5553C27.6789 34.0009 27.0081 34.2603 26.4182 34.1536C27.0924 32.4368 27.743 30.7493 28.4082 29.0639C28.4272 29.0252 28.4555 28.991 28.491 28.9642C28.5265 28.9373 28.5681 28.9185 28.6127 28.9091C28.9824 28.8934 29.3532 28.9018 29.7667 28.9018C29.451 29.7115 29.1633 30.4522 28.8678 31.2211C29.0049 31.24 29.0847 31.2599 29.1656 31.2619C31.0837 31.3048 32.9861 29.8904 33.276 28.1234C33.4108 27.2948 33.3715 26.4432 33.4176 25.4766C32.8838 25.6963 32.4411 25.8249 32.0602 26.0457C31.4915 26.3763 30.8325 26.5471 30.1622 26.5376C29.4919 26.5282 28.8388 26.3388 28.2812 25.9923C28.0956 25.8788 27.8935 25.7904 27.6812 25.7297C27.0531 25.5519 26.4193 25.3908 25.7788 25.2234V24.2274H24.5169V27.6924H23.2505V24.2337H21.9819V27.7007H20.7458V24.2253H19.4649V27.7112H18.1906ZM6.11218 25.2861C8.06401 25.0978 9.53828 23.1938 9.22589 21.3211C8.83036 18.9463 7.24036 17.241 5.49978 15.6027C5.16267 15.9165 4.83681 16.1823 4.54915 16.4804C3.3131 17.7505 2.26134 19.1168 1.82198 20.8189C1.33318 22.7115 2.29729 24.5067 4.15923 25.1481C4.36149 25.2171 4.57724 25.2527 4.85703 25.3259V20.7049H6.11218V25.2861ZM38.5236 15.5933C37.444 16.5126 36.516 17.575 35.7694 18.7465C35.708 18.8314 35.6787 18.933 35.6863 19.0352C35.8402 19.7152 35.5245 20.2414 35.0345 20.684C34.6592 21.025 34.2929 21.3295 34.6345 21.8662C34.6592 21.9059 34.6424 21.9708 34.6457 22.021C34.7011 22.7418 34.9891 23.4303 35.4719 23.9961C35.9547 24.562 36.6099 24.9788 37.3516 25.192C37.5055 25.238 37.6673 25.2621 37.8932 25.3102V20.707H39.1472V25.3102C39.3495 25.2684 39.4978 25.2464 39.6394 25.2056C41.6047 24.6344 42.6823 22.7994 42.1778 20.8461C41.6272 18.714 40.1765 17.1196 38.5236 15.5933ZM33.3951 23.1708H33.3659C33.3659 22.8831 33.3749 22.5964 33.3659 22.3098C33.3063 20.707 32.213 19.6545 30.4668 19.5123C28.8936 19.3846 27.4194 20.3628 27.1429 21.8139C27.0059 22.5368 27.0834 23.2942 27.0441 24.036C27.0306 24.285 27.1385 24.3634 27.3812 24.4304C27.8722 24.5674 28.3925 24.6783 28.8228 24.9273C29.7903 25.4954 30.6095 25.5268 31.5612 24.9273C31.7452 24.8147 31.9438 24.7243 32.1523 24.6584C32.5344 24.535 33.0771 24.5434 33.276 24.3006C33.4749 24.0579 33.3681 23.5558 33.3951 23.1708ZM15.0297 24.1678C14.5027 24.2149 14.0813 24.2096 13.6813 24.2965C12.1868 24.6218 11.2451 25.7789 11.2362 27.2812C11.2272 28.9635 11.2272 30.6457 11.2362 32.328C11.2362 32.9453 11.0227 33.4788 10.4642 33.8084C10.1361 34.0019 9.72256 34.0898 9.33489 34.1724C8.94722 34.2551 8.69777 34.4675 8.71462 34.7918C8.73148 35.1161 9.00228 35.3504 9.38883 35.3578C9.51528 35.36 9.64169 35.3513 9.76638 35.3316C11.3991 35.0868 12.4632 33.913 12.5037 32.3761C12.5097 31.742 12.577 31.1096 12.7048 30.4867C12.9149 29.5452 13.1689 28.6224 13.1723 27.6422C13.1723 26.6127 13.6318 25.6921 14.3341 24.8907C14.5218 24.6731 14.7319 24.4701 15.0297 24.1678ZM23.8506 35.341V32.463H19.4783C19.3502 32.871 19.4278 33.1294 19.8907 33.256C20.1155 33.3187 20.329 33.4872 20.5155 33.6399C21.0571 34.0825 21.3021 34.6662 21.3616 35.341H23.8506ZM33.3794 30.6656C32.9962 30.9701 32.6647 31.2096 32.368 31.4827C32.2368 31.599 32.1537 31.7545 32.1332 31.9221C32.113 32.963 32.122 34.005 32.1242 35.046C32.1292 35.1423 32.1397 35.2384 32.1557 35.3337H35.3334C35.1851 35.047 35.1087 34.797 34.9458 34.6014C34.5603 34.1222 33.9625 34.1923 33.3805 34.1829L33.3794 30.6656ZM30.8331 32.2642C30.2083 32.3207 29.5971 32.3929 28.9925 32.4274C28.3116 32.4661 28.2711 32.487 28.1823 33.1691C29.1532 33.6023 29.5813 34.3524 29.5971 35.3389H30.8331V32.2642ZM18.1266 33.6556V32.0393C17.7894 32.1439 17.4726 32.2203 17.1793 32.3385C17.1189 32.3649 17.0658 32.4039 17.0243 32.4525C16.9828 32.5012 16.9539 32.5581 16.9399 32.6188C16.9399 32.7988 16.8051 33.0269 17.1152 33.1514C17.4613 33.2894 17.7793 33.4788 18.1266 33.6556ZM20.0368 35.3462C20.0739 34.6139 19.4019 34.1086 18.5603 34.2195C18.6648 34.5899 18.7682 34.9613 18.876 35.3462H20.0368ZM27.3182 19.2957C27.0339 19.054 26.8362 18.6847 26.3991 18.8396C26.3008 18.8794 26.2127 18.9381 26.1405 19.0119C26.0682 19.0856 26.0135 19.1727 25.9799 19.2675C25.8811 19.6859 26.28 19.8523 26.5418 20.0939L27.3182 19.2957ZM33.0063 19.1911L33.8906 20.096C34.1525 19.8303 34.5278 19.6305 34.4278 19.2277C34.3862 19.0645 34.1232 18.8176 33.994 18.8333C33.6828 18.8772 33.3827 19.0478 33.0085 19.1963L33.0063 19.1911ZM13.5869 35.3504C13.4869 34.9947 13.3992 34.6819 13.3004 34.3252L12.5059 35.3504H13.5869Z" fill="#114C38"/>
<path d="M41.5842 5.98172C41.5854 6.9125 41.192 7.80611 40.4894 8.46828C39.7868 9.13044 38.8319 9.50762 37.8322 9.51782C37.3336 9.52099 36.8392 9.43264 36.3773 9.25782C35.9154 9.083 35.495 8.82514 35.1402 8.49897C34.7854 8.17281 34.5031 7.78474 34.3095 7.35694C34.1159 6.92914 34.0147 6.47001 34.0117 6.00579C34.0093 5.07497 34.4025 4.18106 35.1054 3.51916C35.8083 2.85725 36.764 2.48111 37.7637 2.47283C38.2624 2.46827 38.7572 2.55557 39.2196 2.7297C39.6819 2.90383 40.1027 3.16136 40.4578 3.48747C40.8129 3.81357 41.0952 4.20182 41.2885 4.62989C41.4818 5.05795 41.5823 5.51737 41.5842 5.98172ZM40.3201 5.9744C40.3173 5.66365 40.2483 5.3565 40.117 5.07078C39.9857 4.78506 39.7948 4.52647 39.5553 4.31001C39.3158 4.09355 39.0325 3.92354 38.7219 3.80984C38.4112 3.69615 38.0794 3.64103 37.7457 3.64769C37.0859 3.65947 36.4573 3.91175 35.9951 4.35032C35.5328 4.7889 35.2738 5.37878 35.2736 5.99323C35.2739 6.3042 35.3404 6.61204 35.4693 6.89892C35.5982 7.1858 35.7869 7.44603 36.0246 7.66456C36.2622 7.88308 36.544 8.05556 36.8537 8.172C37.1634 8.28845 37.4949 8.34656 37.8289 8.34296C38.4956 8.33359 39.1314 8.07949 39.5979 7.63592C40.0645 7.19235 40.324 6.59521 40.3201 5.9744Z" fill="#114C38"/>
<path d="M18.8301 4.79283V3.67969H20.0549V4.79283H18.8301Z" fill="#114C38"/>
<path d="M16.8988 10.6754H15.6875V9.55078H16.8988V10.6754Z" fill="#114C38"/>
<path d="M37.9062 31.2637H39.1153V32.3862H37.9062V31.2637Z" fill="#114C38"/>
<path d="M4.87109 18.3359H6.08017V19.4595H4.87109V18.3359Z" fill="#114C38"/>
<path d="M39.1099 19.4701H37.9121V18.3496H39.1099V19.4701Z" fill="#114C38"/>
<path d="M28.315 21.8711H29.5758C29.514 22.3691 29.5466 22.8545 30.2219 22.8807C30.4219 22.889 30.7107 22.7112 30.8163 22.5417C30.922 22.3722 30.8388 22.1149 30.8388 21.8763H32.1108C32.1108 22.344 32.1187 22.7855 32.103 23.2269C32.103 23.3096 32.0131 23.3954 31.949 23.4676C31.9054 23.5003 31.8548 23.5242 31.8007 23.5377C31.2748 23.7469 30.7456 24.1424 30.2275 24.1329C29.6724 24.1235 29.1185 23.7469 28.578 23.5052C28.5131 23.4695 28.4576 23.4208 28.4152 23.3628C28.3729 23.3047 28.3448 23.2387 28.333 23.1694C28.2971 22.753 28.315 22.3356 28.315 21.8711Z" fill="#114C38"/>
</svg>
