<svg width="44" height="47" viewBox="0 0 44 47" fill="none" xmlns="http://www.w3.org/2000/svg">
<path d="M17.0518 46.1216C15.3776 45.2869 13.706 44.4522 12.0292 43.6175C9.97817 42.6039 7.92711 41.5971 5.87605 40.597C5.63753 40.484 5.37454 40.4229 5.1069 40.4182C3.53784 40.4027 1.9675 40.4098 0.363832 40.4098V38.9789H0.863777C2.35336 38.9789 3.84422 38.9634 5.3338 38.9896C5.6969 38.995 6.05401 39.0766 6.37856 39.2281C9.89271 40.9397 13.3992 42.6643 16.8979 44.4021C17.2878 44.6013 17.7261 44.7039 18.1709 44.7002C22.2435 44.6907 26.3072 44.6907 30.3772 44.6907H30.9015C30.8118 43.4601 29.5491 42.2164 28.1057 41.9338C27.7447 41.8678 27.3775 41.8363 27.0096 41.8396C24.3817 41.8312 21.7538 41.8467 19.1272 41.8217C18.7507 41.8106 18.3842 41.706 18.0657 41.5188C16.6236 40.665 15.2096 39.7695 13.7444 38.8608L14.593 37.6684L18.6118 40.1594C19.2772 39.5858 19.4156 38.4387 18.7541 37.7125C17.6619 36.5093 16.5531 35.2978 15.293 34.2544C13.6432 32.8974 11.5959 32.6828 9.45899 32.9499C6.45035 33.3267 3.42375 33.3076 0.357422 33.254V31.8397C0.526634 31.8397 0.697128 31.8397 0.870186 31.8397C4.11086 31.922 7.33358 31.7062 10.5602 31.4522C12.9573 31.2638 15.0904 32.0198 16.821 33.5735C17.8926 34.5557 18.9068 35.5906 19.8591 36.6739C20.7155 37.6278 20.9026 38.7535 20.5168 39.9507C20.4719 40.0914 20.4232 40.231 20.3629 40.4074C22.2396 40.4074 24.0805 40.4003 25.9213 40.4074C26.6725 40.4074 27.4327 40.3979 28.1723 40.4969C30.6592 40.8296 32.5795 42.9807 32.5603 45.3191C32.5603 45.7031 32.3424 45.9153 32.0476 46.1157L17.0518 46.1216Z" fill="#114D38"/>
<path d="M24.6525 3.89256C25.2282 2.6501 26.2569 1.63658 27.5573 1.03069C28.356 0.643065 29.241 0.434404 30.1417 0.42135C31.9517 0.407041 33.7618 0.413004 35.5731 0.415389C36.0962 0.415389 36.4615 0.641954 36.4538 1.05216C36.4307 2.23745 36.5141 3.45255 36.2628 4.60088C35.7013 7.17299 33.1952 8.95689 30.366 8.98074C29.3405 8.99028 28.3226 8.98074 27.2753 8.98074V15.408C31.9646 15.7073 35.9385 17.4066 39.0907 20.6548C41.4406 23.0511 42.9076 26.0821 43.2787 29.3072C44.1504 36.2985 39.9714 42.2715 34.522 44.9199L33.8028 43.6964C35.7674 42.6954 37.4774 41.3126 38.8164 39.6421C40.1612 37.9704 41.0907 36.042 41.5379 33.9959C40.238 33.9959 38.9741 33.9816 37.7178 34.0054C37.346 34.0054 37.1166 34.2618 37.0499 34.6088C36.9948 34.8986 36.9486 35.1895 36.8935 35.5139L35.4552 35.3171C35.3411 33.4319 36.591 32.491 38.0947 32.5506C39.3086 32.5983 40.5303 32.5602 41.7763 32.5602C42.0575 29.9552 41.564 27.3285 40.3495 24.9667C40.2444 25.1193 40.1662 25.2231 40.1009 25.334C39.6612 26.0757 39.2368 26.8257 38.783 27.5603C38.1998 28.5047 37.1473 28.8922 36.0308 28.5715C34.9142 28.2507 33.8054 27.9156 32.6978 27.5686C31.6723 27.2478 31.0954 26.4859 31.089 25.4735C31.0826 24.5076 31.08 23.5405 31.089 22.5734C31.089 22.1907 30.9454 21.9164 30.5762 21.7387C30.2071 21.5611 29.8789 21.3726 29.5187 21.2117C29.0431 21.0006 28.6316 21.164 28.4329 21.6183C27.8842 22.8906 27.2792 23.2698 25.8204 23.2698C25.0345 23.2698 24.25 23.2782 23.4642 23.2698C22.1772 23.2507 21.2183 22.391 21.1632 21.1985C21.135 20.6345 21.1286 20.0681 21.1222 19.5029C21.1157 18.9377 21.1222 18.376 21.1222 17.7977C17.643 18.7862 12.0257 22.5901 11.1361 29.7532L9.6875 29.6339C10.0362 23.2627 16.0522 15.9112 25.6717 15.408V10.4164C25.4819 10.4164 25.2871 10.4164 25.0807 10.4164C23.7039 10.3902 22.3156 10.4641 20.9555 10.3139C18.534 10.0444 16.6034 8.00174 16.4893 5.73013C16.4598 5.1661 16.4752 4.59969 16.4752 4.03447C16.4829 3.59445 16.7521 3.2868 17.1918 3.28799C19.048 3.29515 20.9094 3.28799 22.7604 3.37743C23.3809 3.40724 23.9821 3.70177 24.6525 3.89256ZM22.6399 17.3088C22.6399 17.6427 22.6399 17.9241 22.6399 18.2055C22.6579 19.1869 22.6669 20.1683 22.7027 21.1485C22.7194 21.598 23.013 21.8329 23.5245 21.8389C24.309 21.8484 25.0935 21.8389 25.8793 21.8389C26.6254 21.8389 26.7305 21.7685 26.9933 21.1079C27.1008 20.8224 27.2726 20.5615 27.4973 20.3428C27.722 20.124 27.9943 19.9524 28.2961 19.8395C28.5978 19.7266 28.922 19.675 29.2469 19.6881C29.5719 19.7012 29.89 19.7787 30.1801 19.9155C30.5827 20.0967 30.9724 20.3054 31.3633 20.5117C32.2094 20.9481 32.626 21.6195 32.626 22.5174C32.626 23.4845 32.6324 24.4504 32.626 25.4174C32.626 25.8467 32.8183 26.1102 33.267 26.2414C34.2925 26.5395 35.3039 26.8603 36.3231 27.1656C36.9473 27.3516 37.2204 27.2478 37.5396 26.7053C38.1177 25.7287 38.6779 24.7437 39.2702 23.7754C39.4227 23.5274 39.392 23.3616 39.2266 23.1399C37.7747 21.1447 35.8034 19.5239 33.4964 18.4285C30.0443 16.796 26.4344 16.4359 22.6399 17.3088ZM34.9271 1.85706C33.2349 1.85706 31.5941 1.77836 29.9725 1.87852C28.0663 1.99777 26.7421 2.98034 26.0075 4.62115C25.9524 4.74039 25.905 4.95146 25.9729 5.02897C26.6115 5.75786 27.0344 6.62928 27.1997 7.55695C28.315 7.55695 29.3866 7.57484 30.4583 7.55695C31.3758 7.53166 32.2644 7.25244 33.0104 6.75497C33.7564 6.2575 34.326 5.56439 34.6463 4.76424C35.0232 3.82698 34.9245 2.86348 34.9271 1.85706ZM25.705 8.97358C25.705 8.72317 25.705 8.51687 25.705 8.31058C25.6806 6.46467 24.341 4.9443 22.3643 4.76067C20.9427 4.6283 19.4954 4.73443 18.0622 4.73443C17.7315 6.88918 19.2262 8.7971 21.4747 8.95569C22.8553 9.05467 24.2526 8.97358 25.705 8.97358Z" fill="#114D38"/>
<path d="M30.1547 30.679C30.1558 30.8425 30.1334 31.0053 30.0881 31.1632C29.5471 32.4021 28.6126 33.3287 27.2679 33.7866C26.341 34.1061 25.495 33.7544 24.8886 33.0329C24.5069 32.5743 24.1595 32.0918 23.849 31.5889C23.677 31.3192 23.5722 31.0171 23.5422 30.7047C23.5122 30.3924 23.5577 30.0778 23.6755 29.784C23.7933 29.4902 23.9803 29.2246 24.2228 29.0069C24.4654 28.7891 24.7573 28.6246 25.0771 28.5255C25.7706 28.3025 26.4872 28.1189 27.1961 27.9579C27.6916 27.8465 28.2132 27.898 28.6726 28.1036C29.1319 28.3092 29.5007 28.6563 29.7163 29.0859C29.9509 29.5796 30.0522 30.1293 30.2137 30.654L30.1547 30.679ZM28.6036 30.5801C28.5639 30.431 28.5126 30.1842 28.4357 29.9445C28.2742 29.4353 27.9229 29.2517 27.3819 29.3876C26.841 29.5236 26.2744 29.6667 25.727 29.8252C25.1117 30.0029 24.913 30.468 25.2411 30.9688C25.4876 31.3666 25.7662 31.7465 26.0744 32.1052C26.2496 32.2881 26.49 32.4058 26.7512 32.4367C27.2243 32.4701 28.5959 31.1202 28.6036 30.5801Z" fill="#114D38"/>
<path d="M32.4189 40.3494L31.8164 39.0377C32.5625 38.7408 33.265 38.4272 33.9957 38.1792C34.7263 37.9312 35.2276 37.602 35.1148 36.7363L36.6005 36.9247C36.6608 37.3629 36.5794 37.8078 36.3666 38.2026C36.1538 38.5975 35.8192 38.9243 35.4058 39.1415C35.2651 39.2123 35.1205 39.276 34.9725 39.3323C34.1431 39.665 33.3086 39.9953 32.4189 40.3494Z" fill="#114D38"/>
<path d="M20.3008 24.7207V26.0932H18.8125V24.7207H20.3008Z" fill="#114D38"/>
<path d="M31.1289 33.9902H32.5916V35.3782H31.1289V33.9902Z" fill="#114D38"/>
</svg>
