<svg width="61" height="61" viewBox="0 0 61 61" fill="none" xmlns="http://www.w3.org/2000/svg">
<g clip-path="url(#clip0_1497_852)">
<path d="M30.2206 60.4257H6.53487C2.6998 60.4257 0.22168 57.9733 0.22168 54.1425C0.22168 38.3177 0.22168 22.4943 0.22168 6.67241C0.22168 2.92737 2.7341 0.440674 6.48557 0.440674H54.0757C57.6728 0.440674 60.2152 2.95738 60.2174 6.56737C60.2174 22.4608 60.2174 38.3556 60.2174 54.2518C60.2174 57.939 57.7221 60.4192 54.0135 60.4235C46.0818 60.4292 38.1509 60.43 30.2206 60.4257ZM2.30964 30.4353V53.8016C2.30964 56.9143 3.71377 58.342 6.81141 58.342H53.5441C56.7274 58.342 58.138 56.9464 58.138 53.7909V6.95538C58.138 4.00136 56.6753 2.52506 53.7498 2.52649H6.80284C3.76521 2.52649 2.32036 3.95205 2.32036 6.96395C2.30893 14.787 2.30536 22.6108 2.30964 30.4353Z" fill="#1951A0"/>
<path d="M15.193 21.1274C15.1961 20.6917 15.2857 20.261 15.4569 19.8603C15.628 19.4596 15.8771 19.097 16.1897 18.7935C16.5024 18.4901 16.8722 18.2519 17.2778 18.0928C17.6834 17.9337 18.1167 17.8569 18.5522 17.8668C19.4135 17.896 20.2292 18.261 20.8248 18.8838C21.4205 19.5066 21.7488 20.3377 21.7395 21.1995C21.7303 22.0612 21.3842 22.8851 20.7754 23.495C20.1665 24.1049 19.3432 24.4523 18.4815 24.463C18.0461 24.4613 17.6154 24.3736 17.2141 24.2047C16.8128 24.0359 16.4489 23.7894 16.1432 23.4794C15.8376 23.1694 15.5963 22.802 15.4332 22.3983C15.2701 21.9946 15.1885 21.5627 15.193 21.1274Z" fill="#1951A0"/>
<path d="M45.25 21.1595C45.2477 22.0381 44.8967 22.8798 44.274 23.4997C43.6513 24.1195 42.808 24.4668 41.9294 24.4651C41.0533 24.4651 40.213 24.117 39.5935 23.4975C38.974 22.878 38.626 22.0377 38.626 21.1616C38.626 20.2855 38.974 19.4452 39.5935 18.8257C40.213 18.2062 41.0533 17.8582 41.9294 17.8582C42.3643 17.8568 42.7951 17.9411 43.1974 18.1062C43.5996 18.2714 43.9654 18.5142 44.2738 18.8208C44.5821 19.1274 44.8271 19.4917 44.9946 19.893C45.1621 20.2943 45.2489 20.7246 45.25 21.1595Z" fill="#1951A0"/>
<path d="M27.9033 30.982C27.896 31.6269 27.6988 32.2553 27.3363 32.7887C26.9738 33.3221 26.4621 33.7368 25.8651 33.9809C25.2682 34.2251 24.6125 34.2878 23.9802 34.1613C23.3478 34.0347 22.7667 33.7246 22.3096 33.2696C21.8526 32.8146 21.5398 32.2349 21.4104 31.6031C21.281 30.9713 21.3408 30.3154 21.5822 29.7173C21.8237 29.1193 22.236 28.6057 22.7678 28.2408C23.2996 27.8759 23.9271 27.6758 24.572 27.6657C25.0101 27.6588 25.4451 27.7397 25.8514 27.9038C26.2577 28.0678 26.6271 28.3116 26.9376 28.6207C27.2481 28.9298 27.4935 29.298 27.6594 29.7036C27.8253 30.1092 27.9082 30.5439 27.9033 30.982Z" fill="#1951A0"/>
<path d="M33.477 39.7261C33.4675 40.3714 33.2664 40.9994 32.8992 41.5302C32.5321 42.0611 32.0154 42.4708 31.415 42.7075C30.8145 42.9441 30.1572 42.9969 29.5266 42.8593C28.896 42.7216 28.3206 42.3996 27.8733 41.9343C27.4261 41.4689 27.1272 40.8812 27.0147 40.2456C26.9022 39.6101 26.9811 38.9554 27.2414 38.3648C27.5016 37.7741 27.9316 37.2742 28.4766 36.9284C29.0215 36.5826 29.657 36.4066 30.3022 36.4226C31.1612 36.4401 31.978 36.7978 32.5734 37.4173C33.1687 38.0367 33.4937 38.8671 33.477 39.7261Z" fill="#1951A0"/>
<path d="M30.1971 17.8689C30.8473 17.8573 31.4864 18.0384 32.0339 18.3893C32.5814 18.7403 33.0128 19.2454 33.2738 19.841C33.5348 20.4366 33.6136 21.0962 33.5005 21.7366C33.3873 22.377 33.0872 22.9696 32.6379 23.4397C32.1886 23.9098 31.6102 24.2365 30.9756 24.3786C30.341 24.5206 29.6786 24.4717 29.0717 24.238C28.4649 24.0043 27.9407 23.5962 27.5654 23.0652C27.19 22.5341 26.9801 21.9039 26.9623 21.2538C26.9426 20.8167 27.0116 20.3801 27.1653 19.9705C27.319 19.5608 27.5541 19.1865 27.8564 18.8701C28.1587 18.5538 28.522 18.302 28.9243 18.1299C29.3266 17.9579 29.7596 17.8691 30.1971 17.8689Z" fill="#1951A0"/>
<path d="M39.0978 30.9434C39.1072 31.3814 39.0277 31.8168 38.864 32.2233C38.7002 32.6297 38.4558 32.9987 38.1454 33.3079C37.8349 33.6171 37.465 33.8601 37.058 34.0222C36.6509 34.1844 36.2152 34.2622 35.7772 34.2511C34.9178 34.2204 34.1047 33.854 33.5123 33.2306C32.92 32.6071 32.5956 31.7764 32.6088 30.9165C32.622 30.0567 32.9717 29.2362 33.5829 28.6313C34.194 28.0263 35.018 27.685 35.8779 27.6807C36.3046 27.6801 36.7271 27.7643 37.1208 27.9286C37.5145 28.0929 37.8716 28.3339 38.1713 28.6376C38.471 28.9412 38.7072 29.3015 38.8663 29.6974C39.0253 30.0932 39.104 30.5168 39.0978 30.9434Z" fill="#1951A0"/>
<path d="M57.8916 3.19502L56.5137 1.81714L0.960226 57.3706L2.33811 58.7485L57.8916 3.19502Z" fill="#1951A0"/>
</g>
<defs>
<clipPath id="clip0_1497_852">
<rect width="60" height="59.9871" fill="white" transform="translate(0.22168 0.440674)"/>
</clipPath>
</defs>
</svg>
