<svg width="60" height="61" viewBox="0 0 60 61" fill="none" xmlns="http://www.w3.org/2000/svg">
<g clip-path="url(#clip0_1449_1163)">
<path d="M47.4618 60.7483H42.5399C42.4136 60.7027 42.2838 60.6675 42.1519 60.643C41.0715 60.5159 39.966 60.4941 38.9124 60.2483C37.5493 59.9305 36.2532 59.9138 34.9186 60.3603C34.2496 60.5861 33.5171 60.6246 32.813 60.7483H29.1805C28.3058 60.5894 27.4245 60.464 26.5615 60.2633C25.247 59.9556 23.9659 59.5375 22.9256 58.6243C21.7064 57.5523 21.6747 56.0672 22.8504 54.945C23.24 54.5754 23.71 54.2877 24.1883 53.9298C23.9124 53.1572 23.5528 52.3611 22.8504 51.8995C21.7855 51.2272 20.6801 50.6212 19.5406 50.0849C16.45 48.5697 13.6353 46.71 11.3457 44.0893C9.63485 42.1325 7.86041 40.231 6.02074 38.4097C4.87415 37.2452 3.60524 36.2079 2.23604 35.3157C1.21084 34.6718 0.379641 34.0129 0 32.8589V31.8053C0.0467149 31.7211 0.0853529 31.6326 0.115397 31.5411C0.536849 29.78 2.56383 28.0708 5.0039 28.8652C6.67633 29.4104 8.128 30.3319 9.58803 31.2685C11.0782 32.2234 12.5984 33.1366 14.1036 34.0648C14.4949 34.3056 14.903 34.3842 15.3027 34.0848C15.7024 33.7855 15.7794 33.3707 15.6857 32.9308C15.4934 32.0194 15.3512 31.0811 15.0368 30.2148C13.6637 26.5355 12.2321 22.8745 10.8239 19.2069C9.89575 16.7902 8.92909 14.3886 8.0611 11.9536C7.22489 9.59547 8.62972 7.21059 11.0848 6.71387C11.4929 6.63193 11.9211 6.61855 12.3525 6.57172C12.2857 6.32754 12.2271 6.10344 12.1652 5.87933C11.6903 4.1651 12.2773 2.44082 13.7323 1.46245C14.1872 1.1564 14.7358 0.98414 15.2375 0.75H16.6406C17.1454 0.935658 17.64 1.14779 18.1224 1.38552C19.0339 1.88725 19.5373 2.74353 19.9136 3.73863C20.0909 3.57138 20.2113 3.45933 20.3401 3.35062C21.2448 2.58298 22.2801 2.1933 23.4708 2.34717C25.1316 2.56124 26.237 3.4978 26.8374 5.04814C27.3275 6.31249 27.8192 7.57517 28.3276 8.89472C30.1087 7.2039 31.9818 7.05505 34.0138 8.41473C34.2312 6.98146 34.8885 5.90609 36.1244 5.23712C37.3604 4.56815 38.6548 4.60996 39.956 5.22876C39.971 5.03476 39.981 4.89427 39.9894 4.7655C40.073 3.42756 40.563 2.29031 41.6886 1.52266C42.1602 1.19988 42.7238 1.02093 43.2456 0.763379H44.7692C44.8896 0.815225 45.0084 0.877104 45.1338 0.920588C46.7795 1.48754 47.7478 2.61308 47.9769 4.35241C48.0137 4.63338 48.0438 4.91434 48.0706 5.15016C48.6743 5.01469 49.2413 4.80564 49.8032 4.7772C50.3441 4.74365 50.8861 4.82117 51.3958 5.00498C51.9056 5.1888 52.3723 5.47502 52.7673 5.84603C53.1623 6.21704 53.4771 6.66497 53.6925 7.16225C53.9078 7.65952 54.0191 8.19562 54.0194 8.73751C54.0411 10.1574 54.0194 11.5806 54.0194 13.0524C54.2301 12.9688 54.389 12.9035 54.5479 12.8433C55.3635 12.5273 56.2611 12.4918 57.099 12.7426C57.937 12.9933 58.6676 13.516 59.1755 14.2281C59.5234 14.7298 59.7307 15.3168 60.0033 15.8654V41.89C59.9615 42.0573 59.908 42.2245 59.8813 42.3918C59.5033 44.872 58.8076 47.2635 57.0649 49.1233C56.1802 50.0699 55.8825 51.0215 56.0163 52.2173C56.0188 52.2367 56.0188 52.2564 56.0163 52.2758C55.8892 53.1823 56.1216 53.8044 56.9746 54.3814C58.3911 55.3397 58.366 56.9954 57.0431 58.0958C56.5299 58.5078 55.9627 58.8477 55.3573 59.106C53.4524 59.9422 51.4154 60.2683 49.365 60.5125C48.7262 60.5878 48.094 60.6697 47.4618 60.7483ZM57.9981 28.7815C57.9981 24.8162 57.9981 20.8526 57.9981 16.8872C57.9981 15.5811 57.1117 14.581 55.9912 14.5927C54.9242 14.6044 53.9843 15.5042 54.006 16.8739C54.0629 19.5865 54.0227 22.3026 54.0227 25.0169C54.0227 25.5839 54.0445 26.1508 54.0144 26.7161C53.9742 27.4687 53.3454 27.9169 52.6764 27.6878C52.158 27.5088 51.9958 27.0907 51.9958 26.579C51.9958 25.27 51.9958 23.9616 51.9958 22.6538C51.9958 18.1616 51.9958 13.6695 51.9958 9.17736C51.9958 8.50839 51.8871 7.88625 51.3719 7.41462C50.7565 6.85436 50.0457 6.69715 49.258 7.00488C48.5021 7.3009 48.0371 8.00833 48.0355 8.89305C48.0355 14.3418 48.0355 19.7906 48.0355 25.2394C48.0396 25.4916 48.0149 25.7436 47.9619 25.9903C47.9109 26.2091 47.786 26.4037 47.6081 26.5411C47.4302 26.6784 47.2104 26.7501 46.9857 26.744C46.7611 26.7379 46.5455 26.6544 46.3753 26.5076C46.2052 26.3608 46.0909 26.1597 46.052 25.9384C46.0082 25.6697 45.987 25.3979 45.9884 25.1256C45.9884 19.8909 45.9884 14.6568 45.9884 9.42321C45.9884 7.82102 46.0018 6.22051 45.96 4.62C45.9513 4.3312 45.8772 4.04813 45.7432 3.79215C45.6092 3.53618 45.4188 3.31397 45.1864 3.14229C44.954 2.97061 44.6857 2.85395 44.4016 2.8011C44.1176 2.74824 43.8252 2.76059 43.5467 2.83719C42.5616 3.07969 42.0549 3.82058 42.0532 5.04981C42.0532 11.7284 42.0532 18.4075 42.0532 25.0872C42.0532 25.2628 42.0615 25.44 42.0532 25.614C42.0013 26.3047 41.6 26.7496 41.0347 26.7546C40.4443 26.7546 40.0312 26.2963 40.0011 25.5722C39.9827 25.0704 40.0011 24.5553 40.0011 24.0486C40.0011 18.9711 40.0011 13.893 40.0011 8.81444C40.0011 7.64374 39.2134 6.82927 38.1079 6.76572C37.0794 6.70719 36.2147 7.49155 36.0809 8.61543C36.0542 8.8676 36.0424 9.12114 36.0458 9.37471C36.0458 15.3709 36.0458 21.3666 36.0458 27.3617C36.0458 28.81 35.9505 30.2433 35.5307 31.6431C35.1962 32.7803 34.4704 33.5563 33.3214 33.8423C32.7997 33.9886 32.247 33.9827 31.7285 33.8254C31.21 33.668 30.7472 33.3658 30.3947 32.9543C29.7491 32.2502 29.1253 31.5243 28.5416 30.7684C27.4546 29.3652 26.4745 27.8734 25.3122 26.5372C24.4497 25.5876 23.4901 24.7311 22.449 23.9817C21.8034 23.4967 20.795 23.8328 20.2748 24.5185C19.8969 25.0203 20.0006 25.3547 20.6695 26.1475C21.1148 26.6643 21.526 27.2096 21.9004 27.7798C23.6314 30.4874 24.9459 33.4225 26.2571 36.371C27.0599 38.1873 27.7757 40.0504 28.6821 41.8098C29.8997 44.1729 31.6774 46.1397 33.5589 47.9977C35.1377 49.5531 35.9773 51.361 36.0676 53.6037C36.1094 54.6072 35.8468 55.1357 34.9654 55.5086C34.6142 55.6558 34.3517 56.0103 34.0506 56.2712C34.3667 56.5388 34.6477 56.8817 35.0089 57.0606C36.6144 57.8584 38.3538 58.1811 40.1182 58.4236C42.6518 58.7732 45.2166 58.8371 47.7645 58.6143C49.5475 58.4447 51.3174 58.1581 53.0628 57.7563C53.9709 57.5523 54.8172 57.0472 55.6734 56.6392C56.0464 56.4602 56.0481 56.1475 55.7019 55.9133C55.3557 55.6792 54.9392 55.4484 54.5496 55.2293C54.1599 55.0102 53.904 54.6808 53.9174 54.1957C53.9475 53.0853 53.9993 51.9731 53.991 50.8626C53.9815 50.404 54.0664 49.9484 54.2405 49.524C54.4145 49.0996 54.674 48.7156 55.0028 48.3958C55.4072 47.9994 55.7708 47.5635 56.0882 47.0946C57.4579 44.9857 57.9847 42.6292 57.9964 40.1474C58.0148 36.3593 58.0014 32.5696 58.0014 28.7815H57.9981ZM17.3932 34.7772C18.2044 34.7086 18.9402 34.6367 19.6761 34.5882C20.315 34.5447 20.7766 34.9143 20.8351 35.488C20.852 35.7448 20.7724 35.9987 20.6118 36.1998C20.4512 36.4009 20.2213 36.5347 19.9671 36.5751C18.2194 36.8828 16.455 36.9614 14.7592 36.3911C13.5446 35.9855 12.3741 35.4583 11.2655 34.8173C9.68168 33.8975 8.21663 32.777 6.64121 31.8454C5.80125 31.3635 4.90158 30.9941 3.96532 30.7467C3.17092 30.5276 2.35979 31.1614 2.10224 31.9926C1.91493 32.5964 2.13736 32.8288 3.00535 33.3974C4.07738 34.0982 5.19121 34.7923 6.09767 35.682C8.24339 37.7859 10.2787 40.0102 12.3576 42.1743C13.2925 43.1427 14.1972 44.1495 15.2191 45.0175C17.1156 46.6397 19.3098 47.8188 21.5994 48.7654C24.0947 49.7956 25.6584 51.5717 26.4494 54.1054C26.6919 54.8831 26.4762 55.2895 25.7169 55.5972C25.2031 55.8234 24.711 56.096 24.2468 56.4117C23.9542 56.599 23.9625 56.8783 24.2468 57.0807C24.553 57.3198 24.8837 57.5256 25.2336 57.6945C27.2606 58.5825 29.4146 58.7397 31.5888 58.6979C32.1825 58.6879 32.7746 58.6126 33.482 58.5574C33.3148 58.4103 33.2713 58.3551 33.2127 58.3116C31.9534 57.3901 31.2409 55.5203 33.1776 54.2443C34.0439 53.6723 34.0623 53.0903 33.86 52.3059C33.7546 51.8962 33.6509 51.4429 33.4034 51.1168C32.7344 50.2354 32.022 49.3859 31.2727 48.5714C29.1203 46.23 27.1669 43.7782 25.9209 40.8096C24.8991 38.3679 23.8388 35.9379 22.7116 33.5429C21.6178 31.2166 20.4688 28.917 18.6977 26.987C17.7344 25.9368 17.7913 24.3362 18.676 23.2174C19.9805 21.5634 22.1647 21.269 23.9492 22.4982C25.6467 23.6689 26.9478 25.221 28.1888 26.8332C29.3427 28.3384 30.48 29.8435 31.6356 31.3387C31.9166 31.7033 32.2645 32.0077 32.7796 31.8872C33.3382 31.7585 33.5522 31.3186 33.6275 30.8119C33.7646 29.8887 33.962 28.9722 33.9737 28.0373C34.0105 23.3696 33.9636 18.7018 34.0121 14.0358C34.0241 12.9737 33.8079 11.9215 33.3783 10.9501C32.8883 9.81456 31.7577 9.2476 30.7342 9.64898C29.6388 10.0771 29.2123 11.1876 29.6772 12.4202C30.0284 13.3501 30.393 14.2732 30.7476 15.1998C31.1389 16.2183 31.5436 17.2301 31.9183 18.257C31.968 18.3798 31.9921 18.5116 31.9893 18.6441C31.9864 18.7766 31.9566 18.9071 31.9017 19.0278C31.8468 19.1484 31.7679 19.2566 31.6698 19.3458C31.5717 19.4349 31.4566 19.5032 31.3313 19.5464C30.8429 19.7421 30.3278 19.5297 30.0652 19.0096C29.9986 18.869 29.9394 18.7249 29.8879 18.5781C28.2579 14.3413 26.6273 10.1089 24.9961 5.88101C24.6884 5.08159 24.1983 4.47951 23.3019 4.3892C21.6696 4.22196 20.6511 5.6268 21.2515 7.21393C22.1061 9.47171 22.9909 11.7178 23.8605 13.9689C24.5395 15.7299 25.2269 17.481 25.8925 19.2554C26.1835 20.0247 25.7721 20.7506 25.0463 20.7606C24.4225 20.7723 24.1348 20.3391 23.9324 19.8123C22.5198 16.1586 21.1077 12.5077 19.6962 8.8596C19.0724 7.24403 18.4703 5.61843 17.8231 4.00956C17.6481 3.55828 17.3114 3.18834 16.8785 2.9719C16.4456 2.75545 15.9476 2.70802 15.4817 2.83886C14.5317 3.08973 13.9414 3.9343 14.0484 4.96953C14.1033 5.33455 14.2068 5.69059 14.3561 6.02818C15.8457 9.72982 17.3408 13.4298 18.8416 17.1281C19.1376 17.8623 18.9653 18.4192 18.3783 18.6667C17.7913 18.9142 17.2962 18.6667 16.9785 17.9124C16.741 17.3572 16.5135 16.7986 16.2828 16.24C15.4198 14.1277 14.5635 12.0238 13.6821 9.92326C13.2958 9.0051 12.5365 8.58532 11.5799 8.69068C11.1564 8.72345 10.7573 8.90174 10.4503 9.19531C10.1433 9.48888 9.94739 9.87962 9.89575 10.3012C9.86692 10.8023 9.95272 11.3033 10.1466 11.7663C12.4345 17.7686 14.7709 23.7526 17.032 29.7649C17.6207 31.3287 18.0472 32.9693 17.3932 34.7772Z" fill="#1951A0"/>
<path d="M44.846 56.646C43.1501 56.624 41.469 56.3286 39.8672 55.7713C39.1714 55.5305 38.8637 55.0304 39.0427 54.4434C39.2099 53.8865 39.7936 53.6222 40.4793 53.8463C42.14 54.3916 43.8392 54.7511 45.5852 54.5521C46.5552 54.4417 47.5118 54.144 48.4551 53.8664C48.9735 53.7142 49.4117 53.6808 49.7763 54.1256C50.2362 54.6876 50.0104 55.3816 49.2629 55.7245C47.8794 56.3624 46.3691 56.6775 44.846 56.646Z" fill="#1951A0"/>
<path d="M56.0061 35.7373C56.0061 36.7107 56.0162 37.684 56.0061 38.6574C56.0061 39.1156 55.8222 39.5455 55.3506 39.6508C55.0216 39.7191 54.6791 39.6649 54.3872 39.4986C54.2719 39.401 54.1782 39.2804 54.1123 39.1444C54.0463 39.0085 54.0095 38.8603 54.0043 38.7092C53.973 36.7425 53.9697 34.7763 53.9942 32.8106C53.9942 32.1533 54.4374 31.7419 54.9977 31.7453C55.5579 31.7486 56.0011 32.1951 56.0112 32.8741C56.0262 33.8274 56.0061 34.7824 56.0061 35.7373Z" fill="#1951A0"/>
<path d="M55.9998 42.7398C55.881 43.862 55.4512 44.822 54.5899 45.5394C54.1835 45.8739 53.7153 45.8321 53.3105 45.4859C52.9058 45.1397 52.8941 44.6497 53.165 44.1664C53.4828 43.6028 53.7621 43.0157 54.0431 42.4321C54.2705 41.9571 54.6234 41.7112 55.1569 41.7765C55.3857 41.8179 55.5937 41.9357 55.7468 42.1107C55.8999 42.2857 55.9891 42.5075 55.9998 42.7398Z" fill="#1951A0"/>
</g>
<defs>
<clipPath id="clip0_1449_1163">
<rect width="60" height="60" fill="white" transform="translate(0 0.748413)"/>
</clipPath>
</defs>
</svg>
