<svg width="61" height="61" viewBox="0 0 61 61" fill="none" xmlns="http://www.w3.org/2000/svg">
<g clip-path="url(#clip0_1497_825)">
<path d="M45.4824 6.08892H39.9336V4.21589C41.9182 4.21589 43.8583 4.21589 45.7983 4.21589C47.24 4.21589 47.4365 3.96069 47.2517 2.40608H32.4517C32.3277 3.98177 32.5173 4.21589 33.9659 4.21589C34.6259 4.21589 35.2835 4.21589 36.03 4.21589V6.0257L34.2421 6.15447V9.09044C34.2421 13.0308 34.2257 16.9735 34.2584 20.9139C34.2584 21.6303 34.0946 21.9839 33.3785 22.2695C31.9416 22.8431 30.5702 23.5853 29.0888 24.2994L28.0356 22.8197C29.3158 22.1384 30.5257 21.5414 31.6818 20.8484C31.8568 20.7377 32.006 20.5907 32.1195 20.4175C32.2329 20.2442 32.3079 20.0487 32.3394 19.8439C32.3839 15.4353 32.3745 11.0243 32.3558 6.61571C32.3558 6.3488 32.2505 5.9461 32.0609 5.83606C30.6802 5.02832 30.3923 3.77807 30.4906 2.32414C30.5304 1.75052 30.4906 1.17223 30.4906 0.5354H49.18C49.0864 2.42481 49.8821 4.51558 47.6448 5.84074C47.4553 5.95312 47.3546 6.35348 47.3546 6.62273C47.3359 11.0314 47.3242 15.44 47.3757 19.8486C47.3757 20.2115 47.7876 20.7336 48.1386 20.8999C54.6025 23.9646 58.6043 28.9609 60.074 35.966C62.4541 47.2533 54.097 58.8637 42.6343 60.1959C41.5999 60.3177 40.5585 60.3785 39.4375 60.4722V58.5992C47.4833 58.3135 53.3387 54.6775 57.034 47.3025H49.2877V45.4295H56.2734C57.9257 45.4295 57.9303 45.4295 58.045 43.5564H51.1529V41.7373H58.478C58.5201 41.0747 58.5575 40.5151 58.602 39.8244H53.0204V37.9655H58.6745C58.1527 36.1299 57.7384 34.484 57.1838 32.8872C57.0832 32.5969 56.4068 32.3534 55.9949 32.3511C49.0911 32.3183 42.1873 32.3277 35.2835 32.3277H28.6956V30.4968H56.03C54.7405 28.1251 53.1491 26.2825 51.1154 24.8777C49.6177 23.8569 47.9561 23.0585 46.3155 22.2695C45.6954 21.9722 45.4637 21.6889 45.4684 21.0052C45.4964 16.0838 45.4824 11.1718 45.4824 6.08892Z" fill="#1951A0"/>
<path d="M12.7162 21.1878C10.1115 20.455 9.67388 19.5255 9.97578 15.5383H28.492C28.9344 19.0315 28.6184 20.4948 25.8265 21.1832C25.8265 25.2593 25.8101 29.3519 25.8499 33.4444C25.8499 33.8612 26.1377 34.3154 26.3905 34.6853C30.053 40.0703 33.8068 45.3826 37.364 50.8402C38.6793 52.8537 38.2744 55.216 37.3476 57.3138C36.4817 59.2781 34.7733 60.3785 32.6062 60.3902C23.7132 60.4402 14.8201 60.4402 5.9271 60.3902C3.02984 60.3762 0.719985 57.8757 0.523402 54.9678C0.344519 52.8796 0.951249 50.7998 2.22478 49.1357C5.64861 44.4016 8.86883 39.5201 12.1569 34.6853C12.4073 34.3154 12.6882 33.8612 12.6928 33.4444C12.7326 29.3519 12.7162 25.2593 12.7162 21.1878ZM19.269 58.5336H32.1242C33.6968 58.5336 35.0027 57.9506 35.6486 56.4967C36.339 54.9421 36.6081 53.2049 35.6697 51.6947C34.09 49.1498 32.3418 46.7101 30.603 44.2705C30.449 44.072 30.2559 43.9073 30.0357 43.7865C29.8156 43.6656 29.5729 43.5913 29.3228 43.5681C22.6234 43.526 15.924 43.526 9.22455 43.5681C8.97553 43.5895 8.7335 43.6615 8.51336 43.7799C8.29321 43.8983 8.09959 44.0605 7.94442 44.2565C6.4209 46.3636 5.02375 48.5808 3.48151 50.681C2.70337 51.6997 2.31789 52.9646 2.39562 54.2444C2.49391 57.0703 3.90276 58.5336 6.76492 58.5336C10.9337 58.5336 15.1018 58.5336 19.269 58.5336ZM9.74175 41.5874H28.8033C27.3336 39.4358 25.9154 37.441 24.5908 35.3783C24.2103 34.7686 23.9972 34.0692 23.973 33.3508C23.9121 29.6867 23.9449 26.0202 23.9449 22.3468V21.0403H18.4078V19.2001C20.6966 19.2001 22.9128 19.2001 25.1291 19.2001C26.6339 19.2001 26.8819 18.8934 26.6222 17.4043H11.8316C11.7591 18.9964 11.9393 19.1931 13.4183 19.2001C14.4153 19.2001 15.4146 19.2001 16.4115 19.2001V21.0333L14.5908 21.1199C14.5908 25.257 14.6212 29.3144 14.5627 33.3531C14.5389 34.0716 14.3257 34.7711 13.9449 35.3807C12.6273 37.441 11.2091 39.4381 9.74175 41.5874Z" fill="#1951A0"/>
<path d="M17.399 5.08218C17.413 4.1563 17.701 3.25536 18.2267 2.49325C18.7525 1.73113 19.4922 1.14207 20.3526 0.800516C21.2129 0.458966 22.1551 0.380267 23.0601 0.57437C23.9651 0.768472 24.7923 1.22666 25.4371 1.89101C26.0818 2.55536 26.5152 3.39604 26.6825 4.30678C26.8497 5.21752 26.7433 6.15742 26.3767 7.00766C26.0101 7.8579 25.3997 8.58031 24.6228 9.08356C23.8458 9.58681 22.9371 9.8483 22.0117 9.83498C21.3968 9.82613 20.7897 9.69615 20.225 9.45246C19.6604 9.20878 19.1493 8.85617 18.7209 8.41479C18.2925 7.97341 17.9553 7.4519 17.7285 6.88008C17.5016 6.30825 17.3897 5.69731 17.399 5.08218ZM22.1076 7.96195C22.8516 7.94119 23.5579 7.63039 24.076 7.09588C24.5942 6.56137 24.883 5.84546 24.8808 5.10091C24.8245 4.39209 24.5016 3.73099 23.9773 3.25093C23.453 2.77087 22.7662 2.50756 22.0555 2.5141C21.3448 2.52063 20.663 2.79652 20.1476 3.28614C19.6322 3.77576 19.3215 4.44268 19.2782 5.15242C19.2898 5.89758 19.5923 6.60865 20.121 7.13365C20.6497 7.65865 21.3627 7.95593 22.1076 7.96195Z" fill="#1951A0"/>
<path d="M19.2925 13.4874V11.797H21.0664V13.4874H19.2925Z" fill="#1951A0"/>
<path d="M47.4062 43.4885V41.7583H49.1544V43.4885H47.4062Z" fill="#1951A0"/>
<path d="M14.4832 7.96193C13.9294 7.98294 13.3942 8.1674 12.9449 8.4921C12.4957 8.8168 12.1526 9.26721 11.9587 9.78663C11.7648 10.306 11.7289 10.8712 11.8555 11.411C11.982 11.9508 12.2654 12.4411 12.6699 12.8201C13.0744 13.1991 13.582 13.4499 14.1286 13.5409C14.6753 13.6319 15.2367 13.559 15.7421 13.3315C16.2475 13.104 16.6743 12.7319 16.9687 12.2622C17.2632 11.7925 17.4121 11.2461 17.3968 10.6919C17.37 9.94413 17.0485 9.23738 16.5026 8.72592C15.9567 8.21445 15.2308 7.93981 14.4832 7.96193ZM14.6049 12.2043C14.3219 12.207 14.0444 12.1259 13.8074 11.9712C13.5703 11.8165 13.3843 11.5952 13.2727 11.3349C13.1612 11.0747 13.129 10.7873 13.1804 10.5089C13.2317 10.2304 13.3642 9.97338 13.5613 9.77011C13.7583 9.56684 14.011 9.42641 14.2876 9.36649C14.5642 9.30658 14.8524 9.32985 15.1158 9.43339C15.3792 9.53693 15.6061 9.71611 15.768 9.94838C15.9298 10.1806 16.0194 10.4556 16.0254 10.7387C16.028 11.1208 15.8806 11.4886 15.615 11.7631C15.3494 12.0376 14.9867 12.1969 14.6049 12.2067V12.2043Z" fill="#1951A0"/>
<path d="M11.8013 47.2253V45.5138H13.5752V47.2253H11.8013Z" fill="#1951A0"/>
<path d="M26.7393 47.3892V49.0796H24.9653V47.3892H26.7393Z" fill="#1951A0"/>
<path d="M8.08496 52.8583V51.1188H9.84485V52.8583H8.08496Z" fill="#1951A0"/>
<path d="M19.2224 52.9988V54.7243H17.4531V52.9988H19.2224Z" fill="#1951A0"/>
<path d="M31.8595 52.9755V54.7057H30.1113V52.9755H31.8595Z" fill="#1951A0"/>
<path d="M19.3555 24.866H21.0803V26.6383H19.3555V24.866Z" fill="#1951A0"/>
<path d="M19.2224 30.5226V32.2481H17.4531V30.5226H19.2224Z" fill="#1951A0"/>
<path d="M21.1226 34.278V35.9684H19.3486V34.278H21.1226Z" fill="#1951A0"/>
<path d="M17.3498 37.9866V39.7261H15.5923V37.9866H17.3498Z" fill="#1951A0"/>
</g>
<defs>
<clipPath id="clip0_1497_825">
<rect width="60" height="60" fill="white" transform="translate(0.5 0.469849)"/>
</clipPath>
</defs>
</svg>
