<svg width="56" height="56" viewBox="0 0 56 56" fill="none" xmlns="http://www.w3.org/2000/svg">
<g clip-path="url(#clip0_3419_2288)">
<path d="M13.5845 0L14.198 0.768464C15.8369 0.768464 17.5576 0.768464 19.2929 0.768464C20.6367 0.768464 21.3379 1.47411 21.3379 2.82842C21.3379 3.5925 21.3379 4.35804 21.3379 5.12358C21.3379 6.3654 20.6075 7.0988 19.3747 7.10172C17.8264 7.10172 16.278 7.10172 14.7297 7.10172H14.125C14.0023 7.765 14.0914 8.23104 14.5968 8.73069C18.3712 12.4547 22.1004 16.2225 25.8441 19.9801C26.4284 20.5645 26.6475 21.2394 26.3057 22.0254C25.98 22.772 25.3811 23.1167 24.5675 23.0978C24.2081 23.089 23.8488 23.0978 23.4603 23.0978V27.7728C23.9204 27.7728 24.3527 27.7728 24.7851 27.7728C25.6776 27.7889 26.313 28.3835 26.4751 29.2542C26.5305 29.5601 26.676 29.8424 26.8929 30.0651C31.8154 34.6963 36.7462 39.3188 41.6853 43.9325C42.3748 44.5782 42.4756 45.0194 42.0447 45.449C41.6137 45.8785 41.2121 45.7777 40.546 45.1568L26.9835 32.4552C26.8505 32.331 26.7147 32.2098 26.4912 32.0038C26.4912 32.9096 26.4824 33.7291 26.5014 34.5473C26.5014 34.6437 26.6475 34.7445 26.7395 34.8307C33.4383 41.1888 40.1404 47.544 46.8459 53.8962C47.0797 54.1168 47.4375 54.3257 47.7413 54.3345C49.9251 54.371 52.1088 54.3535 54.2867 54.3535C54.4927 53.192 53.6119 52.1942 52.363 52.1723C51.1141 52.1504 49.8477 52.1898 48.5915 52.1518C48.2556 52.1405 47.9325 52.02 47.6712 51.8085C46.2266 50.4936 44.8127 49.1583 43.3958 47.8186C42.943 47.3906 42.9006 46.9552 43.2366 46.5724C43.5725 46.1897 44.0546 46.1707 44.5293 46.6104C45.8439 47.8216 47.1337 49.0517 48.4527 50.2555C48.6382 50.4137 48.8709 50.5057 49.1144 50.517C50.1895 50.5433 51.2645 50.5272 52.3396 50.5287C54.0559 50.5287 55.3618 51.4973 55.8847 53.1438C55.9175 53.2228 55.9566 53.299 56.0016 53.3717V55.5632C55.6583 55.9343 55.2347 56.0088 54.7366 56.0088C39.7061 55.9971 24.6756 55.9942 9.64504 56C6.76651 56 3.88797 56 1.00943 56C0.36965 56 0.0176233 55.6976 0.0220054 55.1716C0.0263875 54.6457 0.376953 54.355 1.02258 54.3477C1.66821 54.3404 2.3226 54.3477 3.00474 54.3477V34.6013C3.00474 34.4377 3.00474 34.2726 3.00474 34.109C3.03541 33.4823 3.36115 33.1214 3.88115 33.1404C4.37195 33.1565 4.68453 33.5159 4.69622 34.1119C4.70791 34.7679 4.69622 35.4268 4.69622 36.0798V37.5832H21.7425V23.1197H4.70206V23.7464C4.70206 25.9875 4.70206 28.2286 4.70206 30.4668C4.70206 31.1973 4.26385 31.6137 3.67958 31.4749C3.1289 31.3463 3.01642 30.9153 3.01642 30.4245C3.01642 28.2009 3.01642 25.9778 3.01642 23.7552C3.01642 23.5433 2.99743 23.333 2.98575 23.0788C2.56945 23.0788 2.20866 23.0788 1.84787 23.0788C1.05033 23.089 0.476281 22.7194 0.168075 22.002C-0.140131 21.2847 9.5041e-05 20.6156 0.555158 20.056C2.09473 18.4977 3.63868 16.9491 5.18701 15.4102C5.32378 15.267 5.49467 15.1609 5.68365 15.1019C5.85985 15.0437 6.05144 15.0531 6.22104 15.1285C6.39064 15.2038 6.52609 15.3397 6.60096 15.5095C6.79523 15.8996 6.69445 16.24 6.39062 16.5468C4.93577 18.0078 3.48238 19.4687 2.03046 20.9297C1.90192 21.0583 1.78944 21.2029 1.63023 21.387H24.7939L13.0338 9.76213C12.9523 9.91003 12.8543 10.0482 12.7417 10.1741C11.4485 11.4831 10.149 12.7863 8.84312 14.0836C8.43559 14.4869 7.98862 14.5044 7.62929 14.1728C7.26996 13.8411 7.24074 13.3546 7.62929 12.9631C9.09728 11.47 10.5901 9.9988 12.0566 8.50424C12.2367 8.32415 12.3488 8.08715 12.3736 7.83366C12.4019 5.61105 12.4038 3.38942 12.3795 1.16877C12.3795 0.673502 12.5036 0.283426 12.9214 0H13.5845ZM23.4588 37.1814V54.3141H27.9665C27.9803 54.2866 27.9911 54.2577 27.9986 54.2279C28.0045 49.0191 28.0074 43.8112 28.0074 38.6044C28.0117 38.4635 27.9656 38.3257 27.8774 38.2158C27.3092 37.6562 26.7235 37.1157 26.2443 36.6657C25.7331 36.8629 25.3343 37.0894 24.9078 37.1639C24.4521 37.2442 23.9715 37.1814 23.4588 37.1814ZM29.7062 39.9894V54.3068H36.3129C36.3129 51.6639 36.3129 49.059 36.2997 46.4556C36.2691 46.2486 36.1655 46.0595 36.0076 45.9223C34.0211 44.0182 32.0272 42.1224 30.0261 40.2348C29.9355 40.1588 29.8362 40.0916 29.7062 39.9894ZM8.68245 54.3345V39.2998H4.73858V54.3345H8.68245ZM21.7425 54.3272V39.2998H17.7592V54.3272H21.7425ZM37.9985 47.8143V54.3009H44.8287L37.9985 47.8143ZM14.106 5.45084C15.8939 5.45084 17.6379 5.45084 19.3806 5.43184C19.477 5.43184 19.6449 5.16741 19.6508 5.02131C19.68 4.33028 19.6508 3.63779 19.6712 2.94675C19.6858 2.54645 19.5617 2.40035 19.1468 2.41204C18.2193 2.4398 17.2903 2.42081 16.3613 2.42081H14.106V5.45084ZM10.4426 39.2793V41.966H16.0531V39.2793H10.4426ZM16.0604 54.3272V51.6463H10.4338V54.3301L16.0604 54.3272ZM10.4251 43.6622V45.9194H16.0502V43.6666L10.4251 43.6622ZM16.0677 47.6974H10.4411V49.9414H16.0677V47.6974ZM23.4617 35.513H24.7588V29.4471H23.4617V35.513Z" fill="#3A913F"/>
<path d="M18.4967 30.3777C18.4939 31.0696 18.3549 31.7541 18.0877 32.3922C17.8204 33.0303 17.4301 33.6095 16.939 34.0967C16.4479 34.584 15.8657 34.9697 15.2256 35.2319C14.5855 35.4941 13.9 35.6276 13.2083 35.6248C12.5166 35.622 11.8322 35.483 11.1942 35.2157C10.5562 34.9483 9.97711 34.5579 9.48997 34.0668C9.00282 33.5756 8.61718 32.9933 8.35504 32.3531C8.09291 31.7128 7.95942 31.0272 7.9622 30.3354C7.98265 27.4252 10.3738 25.0453 13.2543 25.0672C14.6526 25.0791 15.9893 25.6446 16.9718 26.6399C17.9542 27.6351 18.5026 28.9791 18.4967 30.3777ZM13.2222 26.7648C12.2672 26.7671 11.3523 27.1488 10.6787 27.8258C10.0051 28.5028 9.62799 29.4197 9.63031 30.3748C9.63264 31.3299 10.0142 32.245 10.6911 32.9187C11.368 33.5925 12.2847 33.9696 13.2397 33.9673C13.7125 33.9662 14.1805 33.8719 14.6169 33.6898C15.0533 33.5078 15.4496 33.2416 15.7831 32.9063C16.1167 32.5711 16.3809 32.1735 16.5608 31.7361C16.7407 31.2987 16.8327 30.8302 16.8315 30.3573C16.8304 29.8844 16.7361 29.4163 16.5541 28.9798C16.3721 28.5433 16.1059 28.147 15.7707 27.8134C15.4356 27.4798 15.038 27.2155 14.6007 27.0356C14.1634 26.8557 13.695 26.7636 13.2222 26.7648Z" fill="#3A913F"/>
</g>
<defs>
<clipPath id="clip0_3419_2288">
<rect width="56" height="56" fill="white"/>
</clipPath>
</defs>
</svg>
