<svg width="59" height="56" viewBox="0 0 59 56" fill="none" xmlns="http://www.w3.org/2000/svg">
<g clip-path="url(#clip0_3419_2314)">
<path d="M0.000113932 1.78755C0.499463 0.466416 1.47511 -0.0137193 2.87175 4.25203e-05C7.11545 0.0428571 11.3591 0.0153335 15.6044 0.0168626C15.8322 0.0114818 16.0601 0.0211875 16.2866 0.0459153C16.5665 0.0694298 16.8272 0.197362 17.0164 0.404078C17.2056 0.610794 17.3093 0.881024 17.3068 1.16062C17.3156 1.44801 17.2156 1.72821 17.0267 1.94571C16.8377 2.1632 16.5736 2.30213 16.2866 2.33497C16.095 2.3513 15.9025 2.35539 15.7104 2.3472H2.35243V53.607H40.3122V43.4171C40.0049 43.6694 39.736 43.8759 39.4809 44.1144C38.9324 44.6113 38.3332 44.9034 37.6034 44.5334C36.9166 44.1863 36.7322 43.5792 36.7752 42.8514C36.9289 40.1479 37.0687 37.4445 37.2362 34.7472C37.2695 34.4666 37.3554 34.1948 37.4897 33.9459C38.3655 32.1278 39.2597 30.3174 40.1339 28.4962C40.2614 28.2446 40.3337 27.9689 40.346 27.6873C40.3572 19.3884 40.3598 11.0906 40.3537 2.7937C40.3537 2.67901 40.3429 2.56586 40.3306 2.35943H39.6669H26.9926C26.8196 2.36862 26.6463 2.36862 26.4733 2.35943C26.1744 2.33413 25.8955 2.19944 25.6906 1.9814C25.4857 1.76336 25.3694 1.47746 25.364 1.17897C25.3763 0.590273 25.8249 0.131545 26.4595 0.056619C26.6526 0.0323266 26.8471 0.0190528 27.0418 0.0168626H39.948C41.8456 0.0168626 42.7321 0.89915 42.7321 2.77993C42.7321 9.26635 42.7321 15.7523 42.7321 22.2377V22.8967L42.8427 22.9196C42.9364 22.7453 43.0348 22.5741 43.1208 22.3967C45.3743 17.7747 47.6278 13.1518 49.8812 8.5278C50.7539 6.73723 52.1752 5.73873 54.1833 5.69439C56.3866 5.64546 58.2672 7.10115 58.8618 9.2113C58.8956 9.33363 58.9525 9.44831 58.9986 9.56758V11.1747C58.7358 11.8245 58.5115 12.4912 58.2058 13.1197C54.5935 20.5557 50.9214 27.9641 47.3753 35.4307C46.3474 37.5943 45.1459 39.5302 43.1485 40.9079C42.8151 41.1388 42.7152 41.4232 42.7167 41.8253C42.7311 45.699 42.7311 49.5727 42.7167 53.4465C42.7167 54.6621 42.1206 55.5734 41.0865 55.867C40.6769 55.966 40.2555 56.0077 39.8343 55.9909C27.5109 55.997 15.187 56.0031 2.86254 56.0092C1.46743 56.0092 0.491781 55.5505 -0.00756836 54.2232L0.000113932 1.78755ZM44.3054 36.3298L55.0883 14.2206L50.7278 12.1151L39.948 34.2349L44.3054 36.3298ZM51.7788 10.0385L56.0808 12.1074C56.7185 11.1089 56.9382 10.1196 56.2975 9.12109C56.0689 8.74146 55.7355 8.43525 55.337 8.23896C54.9384 8.04267 54.4915 7.96459 54.0496 8.01402C52.8343 8.11341 52.1675 8.90243 51.7788 10.0385ZM39.232 41.2321L42.7536 38.1555L39.4548 36.579C39.3765 38.1586 39.3058 39.628 39.229 41.2382L39.232 41.2321Z" fill="#A20067"/>
<path d="M21.3831 41.122C17.5655 41.122 13.7464 41.122 9.92574 41.122C9.67725 41.1293 9.42864 41.1119 9.18363 41.07C8.93341 41.022 8.70652 40.8921 8.53908 40.7009C8.37164 40.5097 8.27329 40.2683 8.25969 40.0151C8.24608 39.7618 8.318 39.5114 8.464 39.3035C8.60999 39.0956 8.82167 38.9424 9.06532 38.8681C9.32419 38.8023 9.59107 38.7729 9.85813 38.781C17.5158 38.781 25.1735 38.781 32.8313 38.781H33.0617C33.8822 38.7947 34.4276 39.2397 34.4445 39.9201C34.466 40.6327 33.9329 41.1189 33.0694 41.1205C29.5571 41.1296 26.0447 41.1205 22.5324 41.1205L21.3831 41.122Z" fill="#A20067"/>
<path d="M21.3831 45.1649C25.3185 45.1649 29.2528 45.1649 33.1862 45.1649C34.1833 45.1649 34.7641 46.0824 34.2863 46.8806C34.0404 47.2919 33.6625 47.4631 33.177 47.4601C31.6989 47.4479 30.2208 47.4601 28.7427 47.4601H9.62919C8.81948 47.4601 8.34472 47.1023 8.2725 46.4494C8.19107 45.7001 8.69503 45.171 9.52318 45.1695C12.3072 45.1619 15.0898 45.1695 17.8723 45.1695L21.3831 45.1649Z" fill="#A20067"/>
<path d="M21.3798 9.3275C17.4649 9.3275 13.5495 9.3275 9.63359 9.3275C8.81773 9.3275 8.31377 8.92076 8.26768 8.24796C8.23766 7.96066 8.32182 7.67308 8.50215 7.44675C8.68248 7.22042 8.94465 7.07332 9.23257 7.03692C9.4827 7.00518 9.73493 6.99291 9.98697 7.00022C17.5668 7.00022 25.1467 7.00022 32.7266 7.00022C32.9565 6.99529 33.1865 7.00653 33.4149 7.03386C33.6947 7.05695 33.956 7.18271 34.1479 7.38672C34.3399 7.59072 34.4488 7.85843 34.4535 8.13786C34.4549 8.42653 34.3505 8.7058 34.1599 8.92338C33.9693 9.14096 33.7055 9.28191 33.418 9.31985C33.227 9.33871 33.035 9.34382 32.8433 9.33514L21.3798 9.3275Z" fill="#A20067"/>
<path d="M21.3445 26.068C25.2031 26.068 29.0606 26.068 32.9171 26.068C33.1841 26.0577 33.4508 26.0939 33.7053 26.175C33.9401 26.2623 34.1394 26.4243 34.2723 26.6358C34.4052 26.8473 34.4642 27.0966 34.4402 27.3449C34.4162 27.5932 34.3106 27.8267 34.1396 28.0092C33.9687 28.1916 33.742 28.3128 33.4948 28.354C33.2675 28.3879 33.0378 28.4028 32.808 28.3983H9.89788C8.80546 28.3983 8.26155 28.0099 8.26001 27.2378C8.25848 26.4656 8.80238 26.0665 9.88712 26.0665L21.3445 26.068Z" fill="#A20067"/>
<path d="M21.3154 32.4505C25.1924 32.4505 29.0689 32.4505 32.9449 32.4505C33.2117 32.4373 33.4789 32.4673 33.7361 32.5392C33.971 32.629 34.1685 32.7954 34.2962 33.0111C34.424 33.2268 34.4746 33.4793 34.4398 33.7273C34.4092 33.9759 34.2988 34.208 34.1249 34.389C33.951 34.57 33.7231 34.6903 33.4749 34.7319C33.3612 34.75 33.2457 34.7552 33.1308 34.7472C25.2815 34.7472 17.4323 34.7472 9.58302 34.7472C8.82708 34.7472 8.35385 34.3711 8.27549 33.7411C8.24951 33.5855 8.25736 33.4262 8.29854 33.2738C8.33972 33.1215 8.41325 32.9798 8.51418 32.8582C8.61511 32.7366 8.74108 32.6379 8.88359 32.5689C9.0261 32.4999 9.18183 32.4622 9.34026 32.4582C9.76125 32.4337 10.1853 32.4475 10.6063 32.4475L21.3154 32.4505Z" fill="#A20067"/>
<path d="M21.3153 13.3551C25.2302 13.3551 29.1451 13.3551 33.06 13.3551C34.0464 13.3551 34.6671 14.0769 34.3829 14.875C34.322 15.0878 34.1964 15.2766 34.0234 15.4154C33.8503 15.5542 33.6383 15.6363 33.4164 15.6503C33.1875 15.6717 32.9555 15.6748 32.7266 15.6748C25.1467 15.6748 17.5669 15.6748 9.98699 15.6748C9.7765 15.6748 9.56447 15.6748 9.35397 15.6595C8.70866 15.5998 8.27845 15.1579 8.26309 14.5509C8.25317 14.2527 8.35962 13.9623 8.56013 13.7405C8.76063 13.5187 9.03962 13.3828 9.33861 13.3612C9.50915 13.3444 9.68277 13.3612 9.85639 13.3612L21.3153 13.3551Z" fill="#A20067"/>
<path d="M21.3784 22.0434H9.6337C8.77021 22.0434 8.25088 21.5847 8.26164 20.8538C8.26178 20.5845 8.36067 20.3246 8.53974 20.1227C8.71881 19.9208 8.96575 19.791 9.23422 19.7574C9.48414 19.7296 9.73568 19.7189 9.98708 19.7253H32.7267C32.9569 19.721 33.1873 19.7297 33.4165 19.7513C33.6957 19.7755 33.956 19.9016 34.1473 20.1055C34.3385 20.3094 34.4471 20.5765 34.4521 20.8553C34.4537 21.144 34.3491 21.4232 34.1581 21.6404C33.967 21.8576 33.7027 21.9977 33.415 22.0343C33.2239 22.0501 33.0319 22.0537 32.8404 22.045L21.3784 22.0434Z" fill="#A20067"/>
<path d="M22.497 1.1622C22.5028 1.46924 22.386 1.76604 22.1723 1.98759C21.9587 2.20913 21.6655 2.33736 21.357 2.34419C21.0479 2.33455 20.7542 2.20776 20.536 1.98974C20.3178 1.77173 20.1916 1.47897 20.1831 1.17137C20.1889 0.87436 20.3092 0.590929 20.5191 0.379735C20.729 0.168542 21.0125 0.0457541 21.3109 0.036784C21.4641 0.0288789 21.6173 0.0521617 21.7611 0.105208C21.905 0.158254 22.0364 0.239949 22.1474 0.345294C22.2585 0.450639 22.3467 0.57742 22.4069 0.717881C22.467 0.858342 22.4976 1.00953 22.497 1.1622Z" fill="#A20067"/>
</g>
<defs>
<clipPath id="clip0_3419_2314">
<rect width="59" height="56" fill="white"/>
</clipPath>
</defs>
</svg>
