<svg width="57" height="54" viewBox="0 0 57 54" fill="none" xmlns="http://www.w3.org/2000/svg">
<g clip-path="url(#clip0_3419_2388)">
<path d="M28.378 53.9999H5.28764C2.39531 53.9983 0.405273 52.0288 0.405273 49.1607C0.405273 44.8361 0.405273 40.5126 0.405273 36.19C0.422238 31.6041 1.91945 27.1455 4.67516 23.4747C7.43088 19.8038 11.2985 17.1159 15.7053 15.8091C16.1729 15.6723 16.2757 15.4655 16.2866 15.0054C16.3287 13.2271 16.2492 11.4207 16.5406 9.67971C17.3681 4.74419 21.7736 0.764685 26.7417 0.107135C33.2417 -0.750946 39.2741 3.60319 40.3494 10.0683C40.6065 11.6228 40.513 13.2348 40.5146 14.822C40.5146 15.4096 40.658 15.6552 41.2548 15.8573C49.3443 18.5932 54.303 24.1381 56.0344 32.4903C56.2705 33.7256 56.3864 34.9807 56.3803 36.2382C56.4209 40.5613 56.3975 44.8859 56.3959 49.2089C56.3959 52.007 54.3887 53.9983 51.5837 53.9983C43.8531 54.0014 36.1179 54.0019 28.378 53.9999ZM2.27532 46.515H54.5321V45.9041C54.5321 42.7826 54.5415 39.6597 54.5321 36.5382C54.5408 35.7072 54.4966 34.8765 54.3997 34.0511C53.5883 27.9782 50.6159 23.2504 45.4827 19.8679C43.9757 18.8745 42.3241 18.119 40.5863 17.6278C40.5863 18.9631 40.4787 20.2705 40.6128 21.5483C40.7935 23.2582 41.1613 24.9448 41.4512 26.6408C41.5462 27.1942 41.3857 27.6123 40.8901 27.9248C40.0517 28.4518 39.232 29.0129 38.4155 29.5632C37.9589 29.8741 37.5319 29.8819 37.0721 29.5632C36.2571 29.0036 35.4374 28.4471 34.599 27.9232C34.3746 27.8039 34.1966 27.6132 34.0932 27.3814C33.9899 27.1496 33.9671 26.89 34.0286 26.6439C34.2421 25.4003 34.4167 24.1567 34.6738 22.9302C35.0992 20.8985 34.8811 18.8528 34.9465 16.8086H21.9014C21.9014 18.3973 21.7892 19.9549 21.9326 21.4892C22.0884 23.2178 22.4858 24.9231 22.7819 26.6392C22.877 27.1926 22.7149 27.6092 22.2178 27.9217C21.3809 28.4487 20.5612 29.0098 19.7446 29.5601C19.554 29.7122 19.3171 29.7951 19.073 29.7951C18.8288 29.7951 18.592 29.7122 18.4013 29.5601C17.5692 28.9896 16.7308 28.4285 15.8799 27.8859C15.6747 27.7719 15.5123 27.5943 15.4173 27.38C15.3223 27.1658 15.2998 26.9265 15.3532 26.6983C15.4841 25.9211 15.5978 25.1314 15.7583 24.3541C16.2327 22.1438 16.3901 19.8776 16.2258 17.6232C16.0404 17.6791 15.8565 17.7289 15.6757 17.7879C13.1034 18.6283 10.7404 20.0062 8.74411 21.8296C5.28141 24.9868 3.1106 28.8668 2.51998 33.5241C2.27532 35.4175 2.3096 37.3497 2.27532 39.2664C2.24415 41.6603 2.27532 44.0698 2.27532 46.515ZM2.31583 48.4348C2.10234 50.7401 3.23839 52.136 5.30946 52.1376C20.7051 52.1376 36.0992 52.1376 51.4917 52.1376C53.5831 52.1376 54.8734 50.5256 54.4526 48.4348H2.31583ZM34.8452 14.8795C34.8452 13.6126 34.9683 12.3923 34.8187 11.2187C34.5071 8.69882 33.0671 6.94535 30.6953 6.04841C28.2923 5.14058 26.0685 5.58206 24.1159 7.2376C21.6848 9.28797 21.7549 12.0659 21.9108 14.8795H34.8452ZM38.6741 20.4679C38.6741 17.7708 38.6928 15.1344 38.6632 12.4996C38.6677 11.6649 38.5899 10.8318 38.431 10.0124C37.2701 4.50791 31.9856 1.07092 26.6856 2.04092C21.4962 2.99072 18.1426 7.13034 18.1364 12.4016C18.1364 14.8888 18.1364 17.3713 18.1364 19.8492V20.4601H20.0064V19.8088C20.0064 17.2299 20.0064 14.651 20.0064 12.0721C20.0088 11.627 20.0447 11.1827 20.114 10.743C20.7856 6.42304 24.7112 3.40266 29.1946 3.74776C33.4022 4.07109 36.7885 7.76613 36.7963 12.0332C36.7963 14.6323 36.7963 17.2309 36.7963 19.829V20.4694L38.6741 20.4679ZM18.0148 22.3675C17.7842 23.7012 17.5473 25.0101 17.3416 26.3237C17.3382 26.3863 17.349 26.449 17.3733 26.5068C17.3976 26.5647 17.4347 26.6164 17.4819 26.6579C17.9494 26.9968 18.4309 27.3279 18.9296 27.6248C19.1914 27.7802 20.8511 26.6501 20.7997 26.3485C20.5862 25.0226 20.3477 23.7059 20.1171 22.3675H18.0148ZM36.6779 22.3675C36.4472 23.709 36.2104 25.035 36 26.3641C35.9988 26.4186 36.0102 26.4727 36.0335 26.522C36.0567 26.5714 36.0911 26.6147 36.134 26.6486C36.6015 26.9828 37.0846 27.3139 37.5817 27.6139C37.8404 27.7693 39.5141 26.6625 39.4658 26.3594C39.2554 25.0303 39.017 23.7059 38.7864 22.3675H36.6779Z" fill="#C81031"/>
</g>
<defs>
<clipPath id="clip0_3419_2388">
<rect width="56" height="54" fill="white" transform="translate(0.405273)"/>
</clipPath>
</defs>
</svg>
