<svg width="60" height="57" viewBox="0 0 60 57" fill="none" xmlns="http://www.w3.org/2000/svg">
<g clip-path="url(#clip0_3419_2371)">
<g clip-path="url(#clip1_3419_2371)">
<path d="M3.56836 38.6231C3.72515 37.8045 3.7816 36.9531 4.04658 36.1722C4.52793 34.7483 4.97792 33.279 5.71014 31.9822C8.8993 26.3402 12.1183 20.7185 15.4423 15.1596C18.2222 10.5086 22.4399 7.8993 27.7818 7.15288C30.88 6.72009 33.8732 7.22658 36.7315 8.50772L37.3101 8.76019C37.7084 8.07336 38.0941 7.39437 38.4923 6.72166C40.9132 2.70575 44.4912 0.791099 49.1605 1.01847C53.996 1.25369 58.3517 5.17237 59.2485 9.95665C59.7987 12.7165 59.3024 15.5823 57.8562 17.9963C54.5458 23.6927 51.2432 29.3938 47.9485 35.0996C47.5439 35.7989 47.3119 36.5109 47.511 37.3388C47.8058 38.5557 48.6368 39.3428 49.9115 39.5671C50.9448 39.749 52.1066 39.2205 52.7024 38.2311C53.5475 36.8292 54.3582 35.4085 55.175 33.9862C55.429 33.5456 55.7458 33.2398 56.2977 33.2665C56.4658 33.272 56.6304 33.3167 56.7783 33.397C56.9261 33.4774 57.0531 33.5911 57.1492 33.7293C57.2453 33.8674 57.3078 34.0261 57.3317 34.1927C57.3557 34.3593 57.3404 34.5291 57.287 34.6887C57.2324 34.8425 57.162 34.9901 57.0769 35.1294C56.293 36.4858 55.52 37.8453 54.725 39.1954C53.6134 41.0897 51.5312 42.1121 49.518 41.7671C47.3448 41.3955 45.7549 39.8697 45.3081 37.6571C45.0447 36.3352 45.3583 35.1058 46.0403 33.9423C47.9626 30.6603 49.8598 27.3563 51.7664 24.0711C53.1979 21.5998 54.6545 19.1394 56.0562 16.6509C59.0227 11.382 56.2647 4.89011 50.3835 3.47882C46.6973 2.59442 43.5755 3.74697 41.1954 6.695C40.4256 7.6484 39.8737 8.77743 39.2606 9.76377C40.2766 10.6827 41.2989 11.4793 42.1738 12.4201C45.3097 15.8119 46.7898 19.8545 46.6753 24.4741C46.6028 27.2532 45.823 29.9678 44.4097 32.3617C41.2864 37.7685 38.1819 43.1816 35.0194 48.5664C32.2441 53.2895 28.0782 56.0071 22.6845 56.8679C22.4368 56.9071 22.1922 56.9573 21.946 57.0012H18.8823C18.5107 56.9322 18.1391 56.8648 17.7675 56.7927C10.9047 55.4582 6.36554 51.4847 4.24413 44.814C3.91173 43.768 3.78787 42.6578 3.56836 41.5774V38.6231ZM14.2114 21.7111C14.1174 21.8507 14.0625 21.9228 14.0186 21.9997C11.894 25.669 9.72246 29.3117 7.65908 33.0156C5.3997 37.0754 5.17078 41.3265 6.87511 45.6388C9.41045 52.068 16.3752 55.8565 23.0953 54.5189C27.5545 53.6314 30.9161 51.2134 33.2006 47.2978C35.2389 43.8088 37.249 40.3072 39.27 36.8088C39.3484 36.6739 39.4143 36.5297 39.5052 36.3556L14.2114 21.7111ZM27.0433 26.4907C27.4729 25.7506 27.8994 25.0339 28.2977 24.2954C28.3178 24.2248 28.3225 24.1507 28.3114 24.0782C28.3003 24.0057 28.2737 23.9364 28.2334 23.8751C27.4494 22.6489 27.4384 21.4242 28.1738 20.1728C28.9092 18.9215 29.6508 17.6639 30.3564 16.3937C31.0854 15.0812 32.1359 14.3552 33.6741 14.4367C33.7497 14.4436 33.826 14.4342 33.8977 14.409C33.9694 14.3838 34.0348 14.3436 34.0896 14.2909C34.7967 13.1101 35.4803 11.9168 36.1702 10.7266C34.2526 9.62421 30.8283 8.99697 28.2804 9.32627C23.481 9.95508 19.7572 12.29 17.2344 16.4611C16.5806 17.5431 15.9628 18.6471 15.309 19.773L27.0433 26.4907ZM38.1097 11.8195L35.9413 15.5673C36.9636 17.253 36.9699 18.1515 35.9836 19.8545C35.3 21.0353 34.6054 22.2066 33.9359 23.3984C33.2194 24.6748 32.1642 25.335 30.6825 25.2801C30.5382 25.2801 30.3187 25.3131 30.2591 25.4103C29.8201 26.1159 29.4125 26.842 28.9734 27.5978L40.6796 34.3782C41.3663 33.1849 42.0625 32.0731 42.6614 30.9112C45.3912 25.6267 45.0745 20.4802 41.8414 15.5156C40.8619 14.0425 39.5921 12.7848 38.1097 11.8195ZM31.1638 23.0628C31.3206 22.9342 31.6797 22.7492 31.9008 22.4481C32.2182 21.9814 32.5072 21.496 32.7663 20.9945C33.2837 20.0976 33.8152 19.2053 34.3154 18.2974C34.629 17.7282 34.4612 17.1135 33.9594 16.8155C33.4577 16.5176 32.8619 16.6085 32.5609 17.1056C31.675 18.5687 30.8032 20.0411 29.9879 21.5433C29.6053 22.2349 30.1682 23.0566 31.1638 23.0628Z" fill="#F08F2C"/>
<path d="M58.4708 31.6213C58.3187 31.6354 58.1654 31.6177 58.0207 31.5692C57.8759 31.5207 57.7428 31.4425 57.6299 31.3396C57.5171 31.2367 57.427 31.1115 57.3653 30.9718C57.3036 30.8321 57.2717 30.681 57.2717 30.5283C57.2717 30.3756 57.3036 30.2246 57.3653 30.0849C57.427 29.9452 57.5171 29.8199 57.6299 29.7171C57.7428 29.6142 57.8759 29.536 58.0207 29.4875C58.1654 29.439 58.3187 29.4212 58.4708 29.4354C58.6228 29.4212 58.7761 29.439 58.9209 29.4875C59.0657 29.536 59.1988 29.6142 59.3116 29.7171C59.4245 29.8199 59.5146 29.9452 59.5763 30.0849C59.638 30.2246 59.6698 30.3756 59.6698 30.5283C59.6698 30.681 59.638 30.8321 59.5763 30.9718C59.5146 31.1115 59.4245 31.2367 59.3116 31.3396C59.1988 31.4425 59.0657 31.5207 58.9209 31.5692C58.7761 31.6177 58.6228 31.6354 58.4708 31.6213Z" fill="#F08F2C"/>
</g>
</g>
<defs>
<clipPath id="clip0_3419_2371">
<rect width="59" height="57" fill="white" transform="translate(0.568359 -0.000244141)"/>
</clipPath>
<clipPath id="clip1_3419_2371">
<rect width="56" height="56" fill="white" transform="translate(3.56836 0.999512)"/>
</clipPath>
</defs>
</svg>
