<svg width="46" height="55" viewBox="0 0 46 55" fill="none" xmlns="http://www.w3.org/2000/svg">
<g clip-path="url(#clip0_3419_2293)">
<path d="M15.8476 9.46677H17.4661V12.8998C19.0709 12.7785 20.6163 12.5723 22.1631 12.5723C23.71 12.5723 25.2584 12.7755 26.8876 12.8968V12.3934C26.8876 9.17765 26.8876 5.96094 26.8876 2.74322C26.8876 1.76517 26.7169 1.59988 25.7172 1.59988C23.3407 1.59988 20.9647 1.59988 18.5893 1.59988C17.6551 1.59988 17.4737 1.78488 17.4722 2.73564C17.4722 3.88656 17.4722 5.03899 17.4722 6.24147H15.9283C15.9116 6.21721 15.8735 6.18688 15.8735 6.15655C15.8735 4.81457 15.8278 3.46956 15.8841 2.12909C15.9098 1.5543 16.1596 1.01208 16.5804 0.617454C17.0012 0.222824 17.56 0.00682754 18.1382 0.0152831C20.8144 -0.0039242 23.4946 -0.00442965 26.179 0.0137667C27.5841 0.0243812 28.5077 1.07522 28.5122 2.61281C28.5204 5.96195 28.5204 9.3116 28.5122 12.6618V13.2683C29.8336 13.799 31.1442 14.2115 32.3513 14.8089C38.7705 17.9781 42.6644 23.0716 43.9598 30.106C44.9413 35.4315 43.655 40.3354 41.1388 44.9982C39.1867 48.6016 36.6437 51.8554 33.6147 54.6256C33.364 54.8434 33.0465 54.9701 32.714 54.985C25.4515 55.0042 18.1869 55.0042 10.9204 54.985C10.587 54.974 10.2677 54.8487 10.0166 54.6301C5.23575 50.1553 1.93775 44.7935 0.553934 38.3641C-1.73211 27.7299 3.96776 17.0471 14.9591 13.6474C15.118 13.5861 15.281 13.5354 15.4467 13.4958C15.7683 13.4412 15.8613 13.2698 15.8552 12.9499C15.8369 11.7989 15.8476 10.6495 15.8476 9.46677ZM21.8004 53.4079C25.2402 53.4079 28.6799 53.4079 32.1196 53.3958C32.393 53.3955 32.6579 53.3012 32.8694 53.1289C35.6178 50.5602 37.9333 47.5687 39.7276 44.2688C42.0852 39.9184 43.2877 35.3465 42.384 30.3653C41.4162 25.0398 38.7735 20.7546 34.2548 17.7567C28.3751 13.8612 21.9528 13.1773 15.2943 15.2471C5.37749 18.3284 0.182071 27.8921 2.03529 37.5741C3.20117 43.6699 6.26295 48.7618 10.7024 53.0607C10.9323 53.2657 11.2275 53.3833 11.5361 53.3928C14.9575 53.4155 18.379 53.4079 21.8004 53.4079Z" fill="#EEB927"/>
<path d="M42.2572 12.6646C42.0133 13.1513 41.7877 13.5987 41.5393 14.0915L32.0583 9.37256L32.7685 7.94263L42.2572 12.6646Z" fill="#EEB927"/>
<path d="M32.7669 6.22923L32.0476 4.80081L41.5347 0.0788574L42.2525 1.51637L32.7669 6.22923Z" fill="#EEB927"/>
<path d="M35.6216 6.30505H45.0538V7.82142H35.6216V6.30505Z" fill="#EEB927"/>
<path d="M22.9293 5.48313H21.4053V3.9425H22.9293V5.48313Z" fill="#EEB927"/>
<path d="M38.6496 33.5723C36.42 34.426 34.1263 34.9643 31.6818 35.0037V33.4874C32.741 33.3357 33.8307 33.2811 34.8639 33.0158C36.2356 32.6625 37.5706 32.1727 38.9026 31.692C39.7759 31.3766 40.2361 31.6571 40.3002 32.5882C40.605 36.9219 39.1221 40.7553 36.9549 44.39C35.5942 46.6468 33.9734 48.7379 32.1253 50.6207C31.9797 50.7806 31.8007 50.9068 31.6008 50.9903C31.401 51.0739 31.1852 51.1129 30.9685 51.1045C24.8724 51.0939 18.7641 51.1045 12.6619 51.0802C12.2742 51.0733 11.9022 50.9268 11.6149 50.6678C8.1782 47.1149 5.77176 42.9752 4.55863 38.1744C3.94062 35.7096 3.84306 33.1439 4.27211 30.6396C4.29815 30.388 4.3957 30.149 4.55332 29.9505C4.71095 29.7521 4.92213 29.6024 5.16215 29.519C8.0578 28.2938 11.0571 27.666 14.2027 27.8617C16.7173 28.0133 19.1116 28.6835 21.2772 29.9739C23.5922 31.3508 25.8585 32.802 28.649 33.172C28.5529 33.7406 28.4691 34.2334 28.3777 34.7687C26.4796 34.437 24.6509 33.7912 22.9674 32.8581C21.4433 32.021 19.9681 31.0384 18.3572 30.4167C14.2606 28.823 10.1701 29.2415 6.16496 30.8716C6.07597 30.9244 5.99925 30.9953 5.93987 31.0797C5.8805 31.1642 5.83982 31.2602 5.82053 31.3614C5.40447 33.6921 5.61478 35.9939 6.23201 38.2609C7.35522 42.3899 9.44619 45.9943 12.3525 49.1241C12.5729 49.3391 12.8656 49.465 13.174 49.4774C18.9348 49.4966 24.6951 49.4966 30.4549 49.4774C30.6972 49.4774 31.0188 49.4183 31.1697 49.2591C34.39 45.8624 36.9488 42.0533 38.2107 37.5027C38.5536 36.2623 38.6451 34.9522 38.8539 33.6724L38.6496 33.5723Z" fill="#EEB927"/>
</g>
<defs>
<clipPath id="clip0_3419_2293">
<rect width="45" height="55" fill="white" transform="translate(0.0537109)"/>
</clipPath>
</defs>
</svg>
