<svg width="60" height="59" viewBox="0 0 60 59" fill="none" xmlns="http://www.w3.org/2000/svg">
<g clip-path="url(#clip0_3419_2326)">
<path d="M59.1024 20.0107C58.9009 21.0304 58.7547 22.0668 58.487 23.0682C57.6514 26.1669 56.0158 28.8053 53.7293 31.0672C45.1208 39.5843 36.5158 48.1061 27.9145 56.6324C26.2342 58.2968 23.9954 58.5026 22.0843 57.0805C16.008 52.5552 10.3086 47.6305 5.62022 41.6481C4.62006 40.3723 3.60914 39.1057 2.56436 37.865C0.979494 35.9842 0.871785 33.3595 2.9121 31.6037C3.44449 31.1464 3.9415 30.648 4.47696 30.1481C3.28755 28.9714 2.16891 27.8709 1.06412 26.7674C-0.209923 25.5034 -0.217617 24.2474 1.04104 22.9996C1.43392 22.6094 1.82783 22.2197 2.22277 21.8306C3.48604 20.5853 4.74778 20.5914 6.02336 21.8504C7.00197 22.8167 7.97905 23.782 8.95459 24.7463C9.08999 24.8789 9.23001 25.007 9.36542 25.1335C10.7718 24.1092 11.5196 22.7375 11.5335 21.0456C11.5919 16.3206 11.5996 11.5804 11.6396 6.84778C11.6627 3.93962 13.0245 1.82862 15.671 0.615365C20.0055 -1.36608 25.0786 1.86063 25.1263 6.59171C25.134 7.20139 25.134 7.81107 25.1802 8.42074C25.2141 8.86733 25.4664 9.00298 25.8234 8.6829C26.7912 7.81869 27.7668 6.95904 28.6961 6.0552C30.581 4.21703 32.7275 2.78276 35.2218 1.90026C46.0312 -1.92698 57.1683 4.86938 58.8809 15.5921C58.9455 16.0005 59.0347 16.4075 59.1024 16.8114V20.0107ZM34.5109 46.8014C34.6463 46.6764 34.734 46.6032 34.8186 46.524C40.6365 40.758 46.4851 35.0179 52.2644 29.2153C55.9973 25.4719 57.3899 20.913 56.542 15.7384C54.8802 5.53088 43.1307 -0.0339401 33.9631 4.98065C32.1398 5.97899 30.6718 7.38429 29.1931 8.80484C28.4688 9.53723 27.6701 10.1936 26.8097 10.7634C25.1802 11.7877 23.3045 10.9539 22.9445 9.07157C22.7906 8.29728 22.8398 7.48489 22.8183 6.68926C22.8081 6.06139 22.662 5.44299 22.39 4.87579C22.1179 4.30859 21.7262 3.80579 21.2413 3.4013C20.7564 2.99681 20.1896 2.70005 19.579 2.53103C18.9685 2.36201 18.3285 2.32467 17.7021 2.42153C16.6579 2.57329 15.7038 3.09274 15.0149 3.88469C14.3259 4.67663 13.9481 5.68801 13.9508 6.73346C13.94 11.0866 13.96 15.4412 13.9384 19.7942C13.9292 21.6492 13.7338 23.4767 12.6352 25.106C12.7767 25.2585 12.9029 25.3956 13.0368 25.5282C14.4483 26.9193 15.8608 28.315 17.2744 29.7152C18.156 30.5901 19.0392 31.4619 19.9148 32.3414C20.0892 32.4937 20.2107 32.6966 20.2621 32.9212C20.3134 33.1459 20.2921 33.3808 20.201 33.5927C20.0194 34.05 19.6547 34.3548 19.1962 34.3015C18.7885 34.2427 18.4091 34.0606 18.1099 33.7802C15.8911 31.6235 13.6984 29.4439 11.5088 27.2536C11.3853 27.0925 11.2854 26.915 11.2119 26.7263L7.84057 30.0627L29.584 51.601L32.8152 48.4002C32.6983 48.2783 32.5598 48.1259 32.4136 47.9796L25.9403 41.5673C25.8009 41.4369 25.6698 41.2979 25.548 41.1512C25.3669 40.9308 25.2754 40.6514 25.2912 40.3677C25.307 40.084 25.4291 39.8163 25.6336 39.617C25.8381 39.4177 26.1102 39.3011 26.3969 39.29C26.6835 39.2789 26.964 39.374 27.1836 39.5569C27.3457 39.6924 27.4998 39.8369 27.6452 39.9898L34.5109 46.8014ZM27.8268 53.4438L5.99566 31.8049C5.50328 32.2972 4.97858 32.8261 4.45696 33.3504C3.52451 34.2786 3.44296 35.1901 4.2477 36.2296C8.7484 42.0489 13.5615 47.5818 19.4547 52.0964C20.7426 53.0856 22.0028 54.1099 23.2891 55.1006C24.2477 55.8383 25.271 55.9099 25.9696 55.2728C26.6297 54.6692 27.2451 54.0184 27.8268 53.4438ZM6.00336 28.3175L7.56668 26.8208L4.11537 23.3868L2.51973 24.8713L6.00336 28.3175Z" fill="#2DAEC2"/>
<path d="M22.7875 37.9459C22.6341 37.9496 22.4816 37.922 22.3394 37.8649C22.1972 37.8078 22.0684 37.7223 21.9609 37.6139C21.8534 37.5054 21.7696 37.3762 21.7146 37.2343C21.6596 37.0924 21.6346 36.9409 21.6412 36.789C21.6442 36.4923 21.763 36.2083 21.9726 35.9963C22.1823 35.7844 22.4666 35.661 22.766 35.652C23.0753 35.6552 23.3716 35.7759 23.5938 35.9892C23.8159 36.2024 23.947 36.492 23.96 36.7982C23.9598 36.95 23.9292 37.1003 23.8701 37.2403C23.8109 37.3804 23.7243 37.5074 23.6153 37.6142C23.5063 37.7209 23.377 37.8051 23.2349 37.8621C23.0928 37.919 22.9408 37.9475 22.7875 37.9459Z" fill="#2DAEC2"/>
</g>
<defs>
<clipPath id="clip0_3419_2326">
<rect width="59" height="58" fill="white" transform="translate(0.102539 0.0270996)"/>
</clipPath>
</defs>
</svg>
