<svg width="49" height="58" viewBox="0 0 49 58" fill="none" xmlns="http://www.w3.org/2000/svg">
<g clip-path="url(#clip0_3419_2340)">
<path d="M38.3697 0C39.084 0.226934 39.8412 0.375859 40.5126 0.696403C43.0842 1.92043 44.5572 3.9685 44.5943 6.79525C44.6329 9.59079 43.2642 11.6786 40.7655 13.0076C40.6326 13.0785 40.4984 13.1494 40.3126 13.243C40.7212 14.8174 40.947 16.4286 40.7412 18.0398C40.5426 19.6142 40.1769 21.1672 39.8997 22.6508C40.6141 22.7203 41.4956 22.7132 42.3285 22.9019C45.1458 23.5444 47.2016 26.0875 47.2173 28.8475C47.2116 30.2823 46.7118 31.672 45.801 32.786C44.8902 33.9 43.623 34.6713 42.2099 34.9719C41.7527 35.0684 41.6513 35.2414 41.6656 35.6811C41.6999 36.8455 41.677 38.0128 41.677 39.1617C42.3113 39.3148 42.9142 39.4141 43.4842 39.6042C45.5629 40.2978 46.9016 41.7672 47.5902 43.7755C48.6745 46.9398 48.626 50.1424 47.3473 53.2259C46.3187 55.7066 44.2971 57.1731 41.6684 57.7447C38.4882 58.4354 35.0695 57.2454 33.1379 54.4102C33.0022 54.2088 32.8722 54.0017 32.7193 53.7663C30.1206 55.23 27.3619 55.9945 24.3888 55.9562C21.543 55.9215 18.7586 55.13 16.3255 53.6642C15.4683 54.5733 14.7425 55.5718 13.8039 56.2966C9.21506 59.8353 2.11035 57.6497 0.785986 51.7196C0.198809 49.117 0.158806 46.5299 1.02743 43.9684C1.92891 41.3346 4.06332 39.4155 7.15494 39.2992C7.25513 39.2915 7.35481 39.2782 7.45353 39.2595C7.45353 38.4596 7.44353 37.6909 7.45353 36.925C7.46353 36.342 7.72211 35.6314 7.46924 35.2229C7.24637 34.8584 6.45632 34.8613 5.94058 34.6443C3.87188 33.7734 2.53038 32.2331 2.11178 30.056C1.50889 26.9115 3.38614 23.933 6.52061 23.0196C7.44495 22.7487 8.44787 22.7359 9.43079 22.6111C9.24363 21.9672 8.99362 21.2084 8.80361 20.4354C8.26277 18.2677 8.25151 16.0031 8.77075 13.8302C8.87218 13.4047 8.81504 13.1848 8.37644 12.965C5.68199 11.6048 4.29334 8.82914 4.64336 6.15558C4.82572 4.66395 5.48817 3.27059 6.53221 2.18274C7.57624 1.09489 8.94607 0.370642 10.438 0.117722C10.5809 0.0921918 10.7237 0.0397134 10.8666 0H12.8096C12.9524 0.0411317 13.0953 0.0936102 13.2382 0.123395C14.8897 0.463796 16.3141 1.21551 17.3813 2.51613C17.7313 2.94163 17.9984 3.02531 18.4985 2.81398C20.48 1.97291 22.5744 1.63676 24.7131 1.64669C26.8629 1.64362 28.9911 2.07103 30.9706 2.90333C31.2921 3.04517 31.4392 2.93454 31.6721 2.70477C32.2593 2.12325 32.8436 1.48783 33.5508 1.0907C34.408 0.609884 35.388 0.353166 36.3138 0L38.3697 0ZM23.3688 30.1453C23.396 30.0841 23.4157 30.0198 23.4273 29.9538C23.4273 27.3313 23.4388 24.706 23.4173 22.0849C23.4173 21.9289 23.2102 21.7176 23.0459 21.631C22.0334 21.1242 21.2522 20.2549 20.86 19.1986C20.2671 17.6384 20.7972 16.2485 22.3216 15.6627C23.8223 15.0686 25.4981 15.0839 26.9875 15.7052C28.0905 16.1534 28.6448 17.0129 28.5476 18.2058C28.4205 19.7659 27.5619 20.8694 26.2032 21.5828C25.8518 21.7672 25.7589 21.9558 25.7618 22.3147C25.7746 24.7258 25.7618 27.1469 25.7618 29.5624C25.7618 29.7453 25.7818 29.9269 25.7946 30.1496C26.0803 30.1311 26.3289 30.134 26.5689 30.0985C30.1234 29.568 33.1408 28.0263 35.4452 25.2662C37.9853 22.2239 38.9497 18.732 38.2725 14.8159C38.012 13.3894 37.5101 12.0169 36.7881 10.7567C36.3224 9.92409 36.451 9.22627 37.0939 8.89438C37.7368 8.56249 38.3425 8.82063 38.7997 9.63334C39.0583 10.0915 39.2969 10.5595 39.5426 11.0205C41.497 10.2503 42.6856 7.96679 42.2085 5.97545C41.7627 4.13161 40.1483 2.53031 37.7496 2.2977C36.0352 2.13176 34.008 3.09765 33.0893 4.68193C32.465 5.75561 32.0407 5.90595 30.9121 5.37266C28.9376 4.43152 26.7747 3.94502 24.5845 3.94944C22.3943 3.95386 20.2333 4.44909 18.2627 5.39819C17.2498 5.88184 16.7641 5.73291 16.2483 4.88049C14.8954 2.64378 12.6595 1.8027 10.1465 2.58421C6.89492 3.59406 5.83057 7.63632 8.23214 10.0092C8.78932 10.5581 9.54937 10.9595 10.2837 11.2687C11.3995 11.7367 11.6609 12.1339 11.308 13.2955C11.2638 13.4373 11.2166 13.5791 11.1766 13.7281C10.4994 16.2144 10.5366 18.6922 11.398 21.1204C12.8267 25.1443 15.6426 27.8277 19.6185 29.3468C20.8148 29.8209 22.0832 30.0909 23.3702 30.1453H23.3688ZM15.9569 30.1595C15.7426 30.0177 15.5597 29.8758 15.374 29.7581C14.0573 28.8911 12.8793 27.8326 11.8795 26.6179C10.6409 25.1187 8.80504 24.6152 6.96493 25.262C6.47536 25.4312 6.02448 25.6952 5.6384 26.0386C5.25232 26.3821 4.93871 26.7982 4.71574 27.2628C4.49277 27.7274 4.36487 28.2313 4.33945 28.7453C4.31403 29.2594 4.39159 29.7733 4.56764 30.2574C5.04338 31.6034 6.60348 32.9394 8.71074 32.8699C9.68509 32.8387 10.1294 33.4486 10.048 34.3961C9.92796 35.8002 9.9051 37.2129 9.81652 38.6199C9.76366 39.4056 10.0623 39.841 10.7909 40.2268C14.2196 42.0338 17.1984 47.6759 16.8212 50.7949C16.8169 50.9076 16.8375 51.0199 16.8817 51.1238C16.9259 51.2277 16.9926 51.3207 17.077 51.3962C21.1529 54.2684 27.3976 54.4045 31.625 51.7139C31.7017 51.649 31.7644 51.5693 31.8091 51.4795C31.8538 51.3898 31.8796 51.292 31.885 51.192C31.9321 50.4417 31.8393 49.6715 31.9721 48.9411C32.3693 46.7498 33.3708 44.8052 34.7037 43.0394C35.7881 41.6069 37.061 40.3658 38.7882 39.7134C39.2426 39.5418 39.4211 39.3035 39.3983 38.8525C39.3269 37.4058 39.2954 35.9548 39.1797 34.5124C39.0897 33.3862 39.4883 32.8799 40.6212 32.8657C40.7927 32.8657 40.9641 32.8586 41.1341 32.8487C43.6643 32.6926 45.4772 30.1538 44.7143 27.8178C44.2086 26.2733 43.0785 25.3613 41.5227 25.0762C40.0069 24.7925 38.6211 25.1783 37.5396 26.3626C37.0296 26.9214 36.5553 27.5214 35.9924 28.0221C35.1352 28.7865 34.2123 29.4815 33.3122 30.2106C36.5595 35.6853 34.2894 41.0523 31.1064 43.5968C27.4904 46.4874 22.3073 46.6576 18.6613 44.0124C16.7727 42.6423 15.4369 40.8708 14.7697 38.6511C13.8739 35.6711 14.3354 32.8444 15.9583 30.1595H15.9569ZM25.7675 43.4918C31.2149 42.794 34.2766 36.542 31.575 31.8785C31.3064 31.4147 31.1264 31.2218 30.5063 31.4289C29.2736 31.8556 28.0046 32.1709 26.7147 32.3707C23.9564 32.7726 21.1401 32.4337 18.5585 31.3892C18.1756 31.236 17.9727 31.2715 17.7556 31.6587C17.1061 32.79 16.7309 34.056 16.6598 35.3563C16.4726 38.9021 18.8285 42.2593 22.253 43.2578C22.6216 43.3656 23.0044 43.4294 23.4345 43.5259C23.4345 42.7047 23.4245 41.9657 23.4345 41.2367C23.425 40.7674 23.4551 40.2982 23.5245 39.834C23.5747 39.5815 23.7152 39.3557 23.92 39.198C24.1248 39.0403 24.3801 38.9614 24.6388 38.9759C24.897 38.9834 25.1444 39.0805 25.338 39.2502C25.5316 39.4199 25.6593 39.6515 25.6989 39.9049C25.7427 40.1836 25.7637 40.4653 25.7618 40.7474C25.7746 41.6438 25.7689 42.5501 25.7689 43.4862L25.7675 43.4918ZM40.4069 55.6371C42.2527 55.5605 44.1786 54.6442 45.1315 52.5068C46.3173 49.8502 46.3744 47.0462 45.3115 44.3031C44.13 41.2537 40.4798 40.6935 38.1025 42.7543C36.7754 43.8896 35.7376 45.3204 35.0737 46.9299C34.6637 47.9227 34.2408 48.9978 34.1908 50.0502C34.0423 53.1677 36.6681 55.6385 40.4083 55.6314L40.4069 55.6371ZM2.64324 48.188C2.68181 48.6744 2.70324 49.2021 2.76896 49.724C2.92897 51.0601 3.18756 52.372 4.0719 53.4571C5.83914 55.6385 8.70503 56.2937 11.3023 55.1435C13.361 54.2272 14.874 51.87 14.4982 49.8205C13.9296 46.7285 12.4767 44.1102 9.81367 42.2948C8.87808 41.6605 7.72717 41.4207 6.61366 41.6281C5.50015 41.8355 4.51508 42.4732 3.87474 43.4011C2.87897 44.8364 2.73182 46.4831 2.64324 48.188ZM24.6074 19.7007C25.2232 19.7007 25.9318 19.0809 26.2032 18.3518C26.3304 18.0086 26.2575 17.7491 25.9003 17.7335C25.0431 17.6923 24.1859 17.6966 23.3288 17.7335C23.203 17.7335 22.983 18.0356 22.9902 18.1887C23.0159 18.8766 23.9402 19.7021 24.6074 19.7007Z" fill="#3A5DAE"/>
<path d="M19.3341 14.6273C19.3216 15.1154 19.1199 15.5798 18.7709 15.9239C18.422 16.2679 17.9527 16.4649 17.461 16.4739C16.9693 16.4828 16.4931 16.303 16.1317 15.972C15.7703 15.6409 15.5515 15.1841 15.521 14.6968C15.522 14.2013 15.7186 13.7259 16.0686 13.3726C16.4186 13.0194 16.8942 12.8164 17.3932 12.8073C17.8923 12.7982 18.375 12.9837 18.7379 13.324C19.1007 13.6642 19.3148 14.1321 19.3341 14.6273Z" fill="#3A5DAE"/>
<path d="M33.6892 14.6373C33.6879 14.8824 33.6376 15.1248 33.5413 15.3506C33.445 15.5763 33.3046 15.7808 33.1281 15.9523C32.9517 16.1238 32.7427 16.2588 32.5134 16.3496C32.284 16.4403 32.0388 16.4851 31.7919 16.4811C30.7418 16.4811 29.8575 15.6627 29.8489 14.6685C29.8404 13.6742 30.7404 12.8246 31.7691 12.8246C32.2648 12.8158 32.7441 13.001 33.1034 13.3402C33.4627 13.6794 33.6731 14.1453 33.6892 14.6373Z" fill="#3A5DAE"/>
<path d="M34.3463 7.21652C34.3446 7.0659 34.3728 6.91643 34.4293 6.77665C34.4859 6.63687 34.5696 6.50953 34.6758 6.40191C34.7819 6.29428 34.9084 6.20849 35.048 6.14944C35.1875 6.09038 35.3375 6.05922 35.4892 6.05774C35.7928 6.07273 36.0798 6.19996 36.2936 6.4144C36.5075 6.62884 36.6329 6.91497 36.645 7.21652C36.6284 7.5092 36.5049 7.78584 36.2977 7.99469C36.0905 8.20353 35.8137 8.33027 35.5192 8.35119C35.215 8.34571 34.9243 8.2253 34.7064 8.01448C34.4884 7.80366 34.3597 7.5183 34.3463 7.21652Z" fill="#3A5DAE"/>
<path d="M24.6057 37.9746C24.3004 37.9695 24.009 37.8468 23.7931 37.6324C23.5772 37.4181 23.4536 37.1288 23.4485 36.8257C23.4633 36.5232 23.5935 36.2376 23.8127 36.0269C24.0318 35.8161 24.3235 35.6961 24.6286 35.691C24.9253 35.702 25.2063 35.826 25.4133 36.0373C25.6203 36.2486 25.7373 36.531 25.7401 36.8257C25.7431 36.9755 25.716 37.1244 25.6604 37.2636C25.6047 37.4029 25.5216 37.5297 25.416 37.6367C25.3104 37.7437 25.1843 37.8287 25.0451 37.8867C24.906 37.9447 24.7566 37.9746 24.6057 37.9746Z" fill="#3A5DAE"/>
</g>
<defs>
<clipPath id="clip0_3419_2340">
<rect width="48" height="58" fill="white" transform="translate(0.357178)"/>
</clipPath>
</defs>
</svg>
