<svg width="191" height="41" viewBox="0 0 191 41" fill="none" xmlns="http://www.w3.org/2000/svg">
<path fill-rule="evenodd" clip-rule="evenodd" d="M179.864 7.19916V6.15583H180.552C180.892 6.15583 181.336 6.21875 181.336 6.6408C181.336 7.15198 180.944 7.19916 180.502 7.19916H179.864ZM181.36 9.32515H182.05L181.088 7.66578C181.582 7.63957 181.995 7.36432 181.995 6.69585C181.995 5.93563 181.537 5.62893 180.654 5.62893H179.25V9.32777H179.864V7.72869H180.424L181.36 9.32515ZM177.488 7.47966C177.488 9.26223 178.892 10.7198 180.609 10.7198C182.34 10.7198 183.733 9.26223 183.733 7.47966C183.733 5.68922 182.337 4.24219 180.609 4.24219C178.895 4.24219 177.488 5.68922 177.488 7.47966ZM178.152 7.47966C178.152 6.02214 179.214 4.87657 180.609 4.87657C181.992 4.87657 183.072 6.02214 183.072 7.47966C183.072 8.93718 181.992 10.0827 180.609 10.0827C179.216 10.0827 178.152 8.93455 178.152 7.47966Z" fill="#1951A0"/>
<g clip-path="url(#clip0_704_822)">
<path d="M0 0.25H190.3V40.95H0V0.25Z" fill="#1951A0"/>
<path d="M28.4498 34.7878V17.6828H28.3311L26.8642 21.3686L24.8405 26.0071L22.6981 30.7284H18.8486L17.2602 27.2081L14.643 21.1603L13.2156 17.64L13.0969 17.7656V34.7878H8.29492V5.96094H12.7776L16.3868 14.2025C17.1528 15.9427 17.8876 17.6686 18.5886 19.3802C19.2895 21.0919 19.9961 22.8178 20.7112 24.5579H20.8695L23.091 19.0493L25.1147 14.2025L28.6448 5.96094H33.2462V34.7878H28.4498Z" fill="white"/>
<path d="M57.2723 28.8456C56.7579 30.1293 56.0456 31.2276 55.1355 32.1377C54.2254 33.0505 53.1344 33.7523 51.8682 34.2487C50.602 34.7451 49.2284 34.9932 47.7502 34.9932C46.1929 34.9932 44.7797 34.7251 43.5135 34.1859C42.2472 33.6468 41.1647 32.9022 40.2659 31.9494C39.3672 30.9966 38.6832 29.8726 38.2083 28.5746C37.7335 27.2766 37.4961 25.8702 37.4961 24.3497V5.96094H42.2953V23.976C42.2953 24.8603 42.4196 25.6876 42.6712 26.4607C42.9199 27.2338 43.2845 27.9042 43.7565 28.469C44.2314 29.0367 44.8108 29.4846 45.4947 29.8155C46.1787 30.1464 46.956 30.3119 47.8265 30.3119C49.4602 30.3119 50.7716 29.787 51.758 28.7372C52.7472 27.6874 53.2418 26.1697 53.2418 24.1814V5.96094H58.041V24.5579C58.0439 26.1326 57.7867 27.5619 57.2723 28.8456Z" fill="white"/>
<path d="M81.6089 28.3267C80.9221 30.4263 79.7378 32.0695 78.059 33.2562C76.3801 34.443 74.3366 35.0364 71.9285 35.0364C70.2101 35.0364 68.7036 34.7539 67.4092 34.1862C66.1147 33.6214 65.0491 32.8483 64.2097 31.867C63.3703 30.8885 62.74 29.7274 62.3217 28.3866C61.9034 27.0487 61.6914 25.6052 61.6914 24.059V16.6904C61.6914 15.2555 61.9006 13.8748 62.3217 12.5482C62.74 11.2217 63.3703 10.0578 64.2097 9.04792C65.0491 8.0409 66.1147 7.23928 67.4092 6.64591C68.7008 6.05254 70.2073 5.75586 71.9285 5.75586C74.3621 5.75586 76.4055 6.3692 78.059 7.59873C79.7124 8.82826 80.8825 10.4486 81.5693 12.4655L77.0471 14.3283C76.7023 13.1958 76.1003 12.2772 75.2411 11.5726C74.3818 10.868 73.2767 10.5171 71.9285 10.5171C71.0015 10.5171 70.2016 10.6825 69.5289 11.0135C68.8534 11.3444 68.291 11.7951 67.8416 12.3599C67.3922 12.9276 67.053 13.5695 66.8298 14.2855C66.6036 15.0044 66.4934 15.7347 66.4934 16.4793V24.1418C66.4934 24.9434 66.6065 25.7079 66.8298 26.4411C67.053 27.1742 67.3922 27.8275 67.8416 28.4094C68.291 28.9886 68.8534 29.4507 69.5289 29.7959C70.2045 30.1411 71.0015 30.3122 71.9285 30.3122C73.2513 30.3122 74.3479 29.9471 75.2213 29.2139C76.0946 28.4836 76.7023 27.5222 77.0471 26.3355L81.6089 28.3267Z" fill="white"/>
<path d="M101.605 34.7878L99.423 28.4091H89.1887L86.9672 34.7878H81.9277L92.3627 5.96094H96.2518L106.687 34.7878H101.605ZM96.1699 18.3047L94.344 12.3824H94.2253L92.439 18.1821L90.5736 24.1471H97.9929L96.1699 18.3047Z" fill="white"/>
<path d="M129.216 34.7878V17.6828H129.097L127.63 21.3686L125.606 26.0071L123.464 30.7284H119.617L118.029 27.2081L115.412 21.1603L113.984 17.64L113.866 17.7656V34.7878H109.066V5.96094H113.549L117.158 14.2025C117.924 15.9427 118.659 17.6686 119.36 19.3802C120.061 21.0919 120.768 22.8178 121.483 24.5579H121.641L123.862 19.0493L125.886 14.2025L129.416 5.96094H134.018V34.7878H129.216Z" fill="white"/>
<path d="M158.969 26.5035C158.969 27.7473 158.751 28.8798 158.313 29.9011C157.878 30.9224 157.287 31.801 156.55 32.5313C155.809 33.2616 154.95 33.8208 153.972 34.2087C152.994 34.5967 151.962 34.7878 150.877 34.7878H138.777V5.96094H149.806C151.208 5.96094 152.451 6.15492 153.537 6.54004C154.622 6.92802 155.526 7.46433 156.253 8.15469C156.979 8.84505 157.528 9.67235 157.901 10.6394C158.271 11.6065 158.457 12.6677 158.457 13.8288C158.457 14.3822 158.398 14.9328 158.279 15.4862C158.161 16.0397 157.954 16.5703 157.666 17.0809C157.375 17.5915 156.985 18.0822 156.496 18.5501C156.007 19.0208 155.391 19.4202 154.65 19.7511V19.9165C155.365 20.139 155.993 20.4814 156.535 20.9521C157.078 21.4228 157.528 21.9591 157.884 22.5667C158.24 23.1744 158.511 23.8162 158.698 24.4923C158.876 25.1741 158.969 25.8417 158.969 26.5035ZM153.455 14.1226C153.455 13.0728 153.11 12.197 152.423 11.4924C151.736 10.7878 150.651 10.4369 149.17 10.4369H143.577V17.9339H149.17C150.651 17.9339 151.736 17.5602 152.423 16.8156C153.11 16.0682 153.455 15.1696 153.455 14.1226ZM154.091 26.2154C154.091 25.6905 154.006 25.1884 153.833 24.7034C153.661 24.2213 153.398 23.7934 153.039 23.4197C152.683 23.046 152.225 22.7436 151.671 22.5068C151.117 22.2729 150.467 22.1559 149.727 22.1559H143.577V30.232H149.727C150.467 30.232 151.114 30.1208 151.671 29.9011C152.228 29.6814 152.683 29.3848 153.039 29.0111C153.395 28.6373 153.661 28.2094 153.833 27.7273C154.003 27.2452 154.091 26.7403 154.091 26.2154Z" fill="white"/>
<path d="M171.824 5.75586C173.412 5.75586 174.839 6.03258 176.108 6.58315C177.377 7.13658 178.463 7.89541 179.362 8.85964C180.26 9.82672 180.947 10.9792 181.425 12.3172C181.9 13.6551 182.14 15.1128 182.14 16.6875V24.059C182.14 25.7421 181.894 27.2626 181.405 28.6148C180.916 29.967 180.221 31.1195 179.322 32.0724C178.423 33.0252 177.338 33.7583 176.069 34.2661C174.8 34.7768 173.384 35.0335 171.824 35.0335C170.105 35.0335 168.596 34.7368 167.301 34.1434C166.004 33.5501 164.933 32.7485 164.088 31.7414C163.24 30.7344 162.607 29.5677 162.183 28.2411C161.759 26.9146 161.547 25.5225 161.547 24.059V16.6904C161.547 15.2555 161.759 13.8748 162.183 12.5482C162.607 11.2217 163.24 10.0578 164.088 9.04792C164.933 8.0409 166.004 7.23928 167.301 6.64591C168.596 6.05254 170.105 5.75586 171.824 5.75586ZM171.804 10.4771C170.874 10.4771 170.071 10.6426 169.396 10.9735C168.72 11.3044 168.155 11.7552 167.703 12.32C167.25 12.8849 166.914 13.5267 166.688 14.2456C166.462 14.9645 166.349 15.6948 166.349 16.4394V24.1845C166.349 24.9862 166.462 25.7535 166.688 26.4839C166.914 27.217 167.253 27.8703 167.703 28.4522C168.155 29.0313 168.717 29.4935 169.396 29.8387C170.071 30.1838 170.874 30.355 171.804 30.355C172.652 30.355 173.415 30.1981 174.093 29.8786C174.769 29.562 175.34 29.1255 175.806 28.5749C176.272 28.0215 176.628 27.3739 176.88 26.6293C177.132 25.8848 177.259 25.0689 177.259 24.1845V16.4394C177.259 15.6121 177.132 14.839 176.88 14.1201C176.628 13.4012 176.269 12.7736 175.806 12.2344C175.34 11.6953 174.772 11.2673 174.093 10.9507C173.418 10.6369 172.655 10.4771 171.804 10.4771Z" fill="white"/>
<path fill-rule="evenodd" clip-rule="evenodd" d="M184.964 6.01476V4.87937H185.707C186.074 4.87937 186.555 4.94784 186.555 5.40713C186.555 5.96341 186.131 6.01476 185.653 6.01476H184.964ZM186.58 8.32833H187.327L186.286 6.52255C186.821 6.49402 187.267 6.19449 187.267 5.46704C187.267 4.63974 186.773 4.30597 185.817 4.30597H184.3V8.33119H184.964V6.59102H185.569L186.58 8.32833ZM182.395 6.32001C182.395 8.25987 183.912 9.84599 185.769 9.84599C187.64 9.84599 189.147 8.25987 189.147 6.32001C189.147 4.37159 187.637 2.79688 185.769 2.79688C183.915 2.79687 182.395 4.37159 182.395 6.32001ZM183.112 6.32001C183.112 4.73388 184.26 3.48724 185.769 3.48724C187.264 3.48724 188.432 4.73388 188.432 6.32001C188.432 7.90613 187.264 9.15277 185.769 9.15277C184.263 9.15277 183.112 7.90328 183.112 6.32001Z" fill="white"/>
</g>
<defs>
<clipPath id="clip0_704_822">
<rect width="190.3" height="40.7" fill="white" transform="translate(0 0.25)"/>
</clipPath>
</defs>
</svg>
