<svg width="80" height="96" viewBox="0 0 80 96" fill="none" xmlns="http://www.w3.org/2000/svg">
<path d="M56.4655 0.165039C56.8897 0.514382 57.3389 0.863724 57.7381 1.26297C64.7749 8.27478 71.7867 15.3115 78.8235 22.3233C79.597 23.0719 79.9214 23.8954 79.9214 24.9684C79.8964 44.5814 79.9214 64.1945 79.8964 83.8076C79.8964 85.8538 79.4473 86.3029 77.3512 86.3029C75.0555 86.3029 72.7349 86.3029 70.2895 86.3029C70.2895 86.6772 70.2895 87.0016 70.2895 87.326C70.2895 89.5468 70.2895 91.7427 70.2895 93.9635C70.2895 95.2611 69.7156 95.835 68.418 95.835C46.2847 95.835 24.1514 95.835 1.99306 95.835C0.795314 95.835 0.221394 95.311 0.121582 94.1132C0.121582 93.7888 0.121582 93.4644 0.121582 93.165C0.121582 65.1677 0.121582 37.1953 0.121582 9.19804C0.121582 8.8986 0.121582 8.57421 0.146535 8.27478C0.246347 7.10198 0.820267 6.55302 2.01801 6.52806C4.53827 6.50311 7.05853 6.52806 9.7285 6.52806C9.7285 5.15565 9.77841 3.83314 9.70355 2.51062C9.65364 1.56241 9.85327 0.738959 10.6767 0.165039C25.948 0.165039 41.1943 0.165039 56.4655 0.165039ZM12.9973 3.38398C12.9973 29.959 12.9973 56.4591 12.9973 82.9842C34.2324 82.9842 55.3926 82.9842 76.5777 82.9842C76.5777 63.8701 76.5777 44.806 76.5777 25.7169C76.1285 25.7169 75.7542 25.7169 75.3799 25.7169C69.1916 25.7169 62.9783 25.7169 56.7899 25.7169C54.8436 25.7169 54.3695 25.2428 54.3695 23.2965C54.3695 17.0333 54.3695 10.7701 54.3695 4.53182C54.3695 4.15752 54.3695 3.80818 54.3695 3.40893C40.5205 3.38398 26.7964 3.38398 12.9973 3.38398ZM3.41538 92.5661C24.7003 92.5661 45.8855 92.5661 67.0456 92.5661C67.0456 90.4451 67.0456 88.374 67.0456 86.278C66.5965 86.278 66.2222 86.278 65.8479 86.278C51.4001 86.278 36.9523 86.278 22.5045 86.278C18.8863 86.278 15.293 86.278 11.6748 86.278C10.3274 86.278 9.75345 85.6791 9.7285 84.3316C9.7285 84.0322 9.7285 83.7078 9.7285 83.4084C9.7285 59.2538 9.7285 35.0993 9.7285 10.9448C9.7285 10.5705 9.7285 10.1712 9.7285 9.79691C7.50768 9.79691 5.48649 9.79691 3.41538 9.79691C3.41538 37.4199 3.41538 64.9431 3.41538 92.5661ZM57.6383 5.92919C57.6383 11.3939 57.6383 16.8836 57.6383 22.3732C63.1779 22.3732 68.6426 22.3732 74.0824 22.3732C68.5927 16.8836 63.128 11.4189 57.6383 5.92919Z" fill="#1951A0"/>
<path d="M49.5534 43.2589C43.4898 43.2589 37.4262 43.2589 31.3377 43.2589C30.9384 43.2589 30.5392 43.234 30.1399 43.1591C29.3165 43.0094 28.8923 42.4355 28.8673 41.6619C28.8424 40.9133 29.2416 40.3394 29.9902 40.1398C30.3146 40.04 30.6639 40.015 30.9883 40.015C43.365 40.015 55.7667 40.015 68.1434 40.015C69.5408 40.015 70.2894 40.5889 70.2894 41.6619C70.2894 42.4355 69.8901 42.9595 69.1415 43.1591C68.7173 43.2589 68.2931 43.2839 67.844 43.2839C61.7554 43.2589 55.6419 43.2589 49.5534 43.2589Z" fill="#1951A0"/>
<path d="M49.5784 52.8159C43.5397 52.8159 37.5011 52.8159 31.4625 52.8159C31.2379 52.8159 31.0383 52.8159 30.8137 52.8159C29.591 52.766 28.8174 52.1172 28.8424 51.144C28.8673 50.2208 29.591 49.597 30.7887 49.5221C31.0133 49.5221 31.2129 49.5221 31.4375 49.5221C43.5397 49.5221 55.6419 49.5221 67.7691 49.5221C68.2432 49.5221 68.7173 49.547 69.1415 49.6469C69.8901 49.8215 70.2894 50.3455 70.2894 51.1191C70.2894 51.8926 69.9151 52.4166 69.1665 52.6412C68.7922 52.741 68.368 52.7909 67.9687 52.7909C61.8552 52.8159 55.7168 52.8159 49.5784 52.8159Z" fill="#1951A0"/>
<path d="M49.5533 62.3729C43.4149 62.3729 37.3014 62.3729 31.1629 62.3729C30.7886 62.3729 30.4143 62.3729 30.065 62.2731C29.2665 62.0734 28.8423 61.4746 28.8673 60.701C28.9172 59.8776 29.3663 59.3037 30.2397 59.2038C30.589 59.1539 30.9134 59.1539 31.2627 59.1539C43.4648 59.1539 55.6668 59.1539 67.8688 59.1539C68.2182 59.1539 68.5426 59.1539 68.8919 59.2038C69.7403 59.3286 70.2394 59.8027 70.2893 60.6761C70.3392 61.4995 69.8152 62.1732 68.9668 62.3479C68.6424 62.4228 68.293 62.3978 67.9437 62.3978C61.8302 62.3729 55.6918 62.3729 49.5533 62.3729Z" fill="#1951A0"/>
<path d="M49.5284 33.6519C43.39 33.6519 37.2765 33.6519 31.138 33.6519C29.6159 33.6519 28.8423 33.1279 28.8423 32.0799C28.8174 31.0069 29.6408 30.433 31.1879 30.433C43.5147 30.433 55.8415 30.433 68.1683 30.433C69.5907 30.433 70.3143 30.982 70.2893 32.0549C70.2893 32.8534 69.7653 33.4773 68.9419 33.5771C68.5676 33.627 68.1933 33.627 67.819 33.627C61.7304 33.6519 55.6419 33.6519 49.5284 33.6519Z" fill="#1951A0"/>
<path d="M49.5535 71.905C43.2903 71.905 37.052 71.905 30.7888 71.905C29.3665 71.905 28.4682 70.9069 29.0171 69.809C29.2417 69.3349 29.8905 69.0604 30.3646 68.736C30.4894 68.6362 30.7389 68.711 30.9136 68.711C43.3651 68.711 55.8167 68.711 68.2683 68.711C69.1416 68.711 69.8902 68.8857 70.2395 69.784C70.6388 70.857 69.8403 71.905 68.6176 71.905C65.6731 71.93 62.7037 71.905 59.7593 71.905C56.3407 71.905 52.9471 71.905 49.5535 71.905Z" fill="#1951A0"/>
<path d="M25.6234 27.264C24.1263 27.264 22.6291 27.264 21.1319 27.264C19.8842 27.264 19.2854 26.6651 19.2604 25.4424C19.2355 22.3981 19.2355 19.3539 19.2604 16.2846C19.2604 15.1368 19.8343 14.513 20.9572 14.513C24.0764 14.488 27.1955 14.488 30.2897 14.513C31.3876 14.513 31.9865 15.0619 32.0114 16.1848C32.0613 19.304 32.0613 22.3981 32.0114 25.5173C31.9865 26.715 31.3626 27.239 30.1649 27.239C28.6677 27.264 27.1456 27.264 25.6234 27.264ZM22.5293 24.045C24.6752 24.045 26.6964 24.045 28.7925 24.045C28.7925 21.949 28.7925 19.8779 28.7925 17.8068C26.6964 17.8068 24.6253 17.8068 22.5293 17.8068C22.5293 19.8779 22.5293 21.924 22.5293 24.045Z" fill="#1951A0"/>
<path d="M22.5045 52.8658C21.8058 52.8159 21.1571 52.8159 20.5332 52.6911C19.7347 52.5414 19.3105 51.9425 19.3105 51.144C19.3355 50.3455 19.7347 49.7217 20.5582 49.6468C21.8558 49.572 23.1533 49.572 24.4509 49.6468C25.2244 49.6967 25.6237 50.2956 25.6486 51.0692C25.6736 51.8926 25.2993 52.4665 24.5008 52.6412C23.827 52.8159 23.1284 52.8159 22.5045 52.8658Z" fill="#1951A0"/>
<path d="M22.5294 39.9901C23.0534 39.9901 23.6024 39.9402 24.1015 39.9901C25.0497 40.0899 25.6236 40.7137 25.6236 41.5621C25.6485 42.4355 25.1495 43.0843 24.1514 43.1591C23.0035 43.2589 21.8557 43.234 20.7078 43.1591C19.7846 43.0843 19.2606 42.4604 19.2356 41.637C19.2107 40.8135 19.8095 40.1148 20.7078 40.015C21.3566 39.9402 21.9555 40.015 22.5294 39.9901C22.5294 40.015 22.5294 39.9901 22.5294 39.9901Z" fill="#1951A0"/>
<path d="M22.5043 68.7359C23.0283 68.7359 23.5524 68.7109 24.0764 68.7359C25.0246 68.7858 25.6484 69.4346 25.6235 70.3329C25.6235 71.2062 24.9996 71.855 24.1013 71.88C23.0034 71.9049 21.9304 71.9049 20.8325 71.88C19.9092 71.855 19.2355 71.1314 19.2604 70.258C19.2854 69.4096 19.9092 68.7608 20.8075 68.7109C21.3814 68.7109 21.9554 68.7359 22.5043 68.7359Z" fill="#1951A0"/>
<path d="M22.4047 62.348C21.8807 62.348 21.3567 62.3979 20.8327 62.348C19.9344 62.2731 19.3105 61.5744 19.3105 60.751C19.3105 59.9026 19.8845 59.2289 20.8077 59.1789C21.9306 59.1041 23.0535 59.1041 24.1514 59.1789C25.0997 59.2289 25.6486 59.8527 25.6486 60.726C25.6486 61.6243 25.0497 62.2731 24.0766 62.348C23.5276 62.3979 22.9537 62.348 22.4047 62.348Z" fill="#1951A0"/>
<path d="M22.5046 33.627C21.9556 33.627 21.3817 33.6519 20.8327 33.627C19.9095 33.5521 19.3106 32.9283 19.2856 32.0799C19.2856 31.3064 19.8596 30.5328 20.683 30.4829C21.8808 30.408 23.1035 30.408 24.3012 30.4829C25.1247 30.5328 25.6487 31.2814 25.6237 32.1048C25.5988 32.9283 25.0498 33.5272 24.1515 33.602C23.6275 33.6519 23.0536 33.627 22.5046 33.627Z" fill="#1951A0"/>
</svg>
